<svg width="323" height="16" viewBox="0 0 323 16" fill="none" xmlns="http://www.w3.org/2000/svg">
<path d="M322.707 8.70713C323.098 8.31661 323.098 7.68345 322.707 7.29292L316.343 0.92896C315.953 0.538435 315.319 0.538435 314.929 0.92896C314.538 1.31948 314.538 1.95265 314.929 2.34317L320.586 8.00003L314.929 13.6569C314.538 14.0474 314.538 14.6806 314.929 15.0711C315.319 15.4616 315.953 15.4616 316.343 15.0711L322.707 8.70713ZM-8.74228e-08 9L322 9.00003L322 7.00003L8.74228e-08 7L-8.74228e-08 9Z" fill="url(#paint0_linear_16_143)"/>
<defs>
<linearGradient id="paint0_linear_16_143" x1="-4.37114e-08" y1="8.5" x2="322" y2="8.50003" gradientUnits="userSpaceOnUse">
<stop offset="0.1609" stop-color="#FF3F02"/>
<stop offset="0.687809" stop-color="#FF8B3D"/>
<stop offset="1" stop-color="#FF3F02"/>
</linearGradient>
</defs>
</svg>
