<svg width="42" height="42" viewBox="0 0 42 42" fill="none" xmlns="http://www.w3.org/2000/svg">
<path d="M26.25 36.75C29.1495 36.75 31.5 34.3995 31.5 31.5C31.5 30.8832 31.3936 30.2912 31.1982 29.7415C31.2981 29.7471 31.3987 29.75 31.5 29.75C34.3995 29.75 36.75 27.3995 36.75 24.5C36.75 23.1554 36.2445 21.9288 35.4132 21C36.2445 20.0712 36.75 18.8446 36.75 17.5C36.75 14.6005 34.3995 12.25 31.5 12.25C31.3987 12.25 31.2981 12.2529 31.1982 12.2585C31.3936 11.7088 31.5 11.1168 31.5 10.5C31.5 7.6005 29.1495 5.25 26.25 5.25C23.3505 5.25 21 7.6005 21 10.5V31.5C21 34.3995 23.3505 36.75 26.25 36.75Z" fill="#FF3F02" fill-opacity="0.11"/>
<path d="M15.75 5.25C12.8505 5.25 10.5 7.6005 10.5 10.5C10.5 11.1168 10.6064 11.7088 10.8018 12.2585C10.7019 12.2529 10.6013 12.25 10.5 12.25C7.60051 12.25 5.25 14.6005 5.25 17.5C5.25 18.8446 5.75549 20.0712 6.58681 21C5.75549 21.9288 5.25 23.1554 5.25 24.5C5.25 27.3995 7.6005 29.75 10.5 29.75C10.6013 29.75 10.7019 29.7471 10.8018 29.7415C10.6064 30.2912 10.5 30.8832 10.5 31.5C10.5 34.3995 12.8505 36.75 15.75 36.75C18.6495 36.75 21 34.3995 21 31.5V10.5C21 7.60051 18.6495 5.25 15.75 5.25Z" fill="#FF3F02" fill-opacity="0.11"/>
<path d="M21 31.5C21 34.3995 23.3505 36.75 26.25 36.75C29.1495 36.75 31.5 34.3995 31.5 31.5C31.5 30.8832 31.3936 30.2912 31.1982 29.7415C31.2981 29.7471 31.3987 29.75 31.5 29.75C34.3995 29.75 36.75 27.3995 36.75 24.5C36.75 23.1554 36.2445 21.9288 35.4132 21C36.2445 20.0712 36.75 18.8446 36.75 17.5C36.75 14.6005 34.3995 12.25 31.5 12.25C31.3987 12.25 31.2981 12.2529 31.1982 12.2585C31.3936 11.7088 31.5 11.1168 31.5 10.5C31.5 7.6005 29.1495 5.25 26.25 5.25C23.3505 5.25 21 7.6005 21 10.5M21 31.5V10.5M21 31.5C21 34.3995 18.6495 36.75 15.75 36.75C12.8505 36.75 10.5 34.3995 10.5 31.5C10.5 30.8832 10.6064 30.2912 10.8018 29.7415C10.7019 29.7471 10.6013 29.75 10.5 29.75C7.6005 29.75 5.25 27.3995 5.25 24.5C5.25 23.1554 5.75549 21.9288 6.58681 21C5.75549 20.0712 5.25 18.8446 5.25 17.5C5.25 14.6005 7.60051 12.25 10.5 12.25C10.6013 12.25 10.7019 12.2529 10.8018 12.2585C10.6064 11.7088 10.5 11.1168 10.5 10.5C10.5 7.6005 12.8505 5.25 15.75 5.25C18.6495 5.25 21 7.60051 21 10.5" stroke="url(#paint0_linear_16_62)" stroke-width="1.5" stroke-linejoin="round"/>
<defs>
<linearGradient id="paint0_linear_16_62" x1="5.25" y1="21" x2="36.75" y2="21" gradientUnits="userSpaceOnUse">
<stop offset="0.1609" stop-color="#FF3F02"/>
<stop offset="0.687809" stop-color="#FF8B3D"/>
<stop offset="1" stop-color="#FF3F02"/>
</linearGradient>
</defs>
</svg>
