<svg width="42" height="42" viewBox="0 0 42 42" fill="none" xmlns="http://www.w3.org/2000/svg">
<path d="M6.29367 21.0309L5.51049 12.7132C5.35796 11.0932 6.3408 9.57867 7.8558 8.98515C9.94365 8.1672 12.9907 6.86988 15.8752 5.25829C18.973 3.52751 23.027 3.52751 26.1249 5.25829C29.0093 6.86988 32.0564 8.1672 34.1443 8.98515C35.6593 9.57867 36.6421 11.0932 36.4896 12.7132L35.7064 21.0309C35.1204 27.2545 31.7922 32.8935 26.6269 36.4144L25.9284 36.8906C22.9553 38.9172 19.0447 38.9172 16.0717 36.8906L15.3732 36.4144C10.2079 32.8935 6.87967 27.2545 6.29367 21.0309Z" fill="#FF3F02" fill-opacity="0.11"/>
<path d="M16.625 21.875L19.0114 24.5L25.375 17.5M5.51049 12.7132L6.29367 21.0309C6.87967 27.2545 10.2079 32.8935 15.3732 36.4144L16.0717 36.8906C19.0447 38.9172 22.9553 38.9172 25.9284 36.8906L26.6269 36.4144C31.7922 32.8935 35.1204 27.2545 35.7064 21.0309L36.4896 12.7132C36.6421 11.0932 35.6593 9.57867 34.1443 8.98515C32.0564 8.1672 29.0093 6.86988 26.1249 5.25829C23.027 3.52751 18.973 3.52751 15.8752 5.25829C12.9907 6.86988 9.94365 8.1672 7.8558 8.98515C6.3408 9.57867 5.35796 11.0932 5.51049 12.7132Z" stroke="url(#paint0_linear_16_49)" stroke-width="1.5" stroke-linecap="round" stroke-linejoin="round"/>
<defs>
<linearGradient id="paint0_linear_16_49" x1="5.49493" y1="21.1854" x2="36.5051" y2="21.1854" gradientUnits="userSpaceOnUse">
<stop offset="0.1609" stop-color="#FF3F02"/>
<stop offset="0.687809" stop-color="#FF8B3D"/>
<stop offset="1" stop-color="#FF3F02"/>
</linearGradient>
</defs>
</svg>
