<svg width="42" height="42" viewBox="0 0 42 42" fill="none" xmlns="http://www.w3.org/2000/svg">
<path d="M3.5 21C3.5 11.335 11.335 3.5 21 3.5C30.665 3.5 38.5 11.335 38.5 21C38.5 30.665 30.665 38.5 21 38.5C11.335 38.5 3.5 30.665 3.5 21Z" fill="#FF3F02" fill-opacity="0.11"/>
<path d="M15.75 20.2222L21 14M21 14L26.25 20.2222M21 14L21 28M3.5 21C3.5 11.335 11.335 3.5 21 3.5C30.665 3.5 38.5 11.335 38.5 21C38.5 30.665 30.665 38.5 21 38.5C11.335 38.5 3.5 30.665 3.5 21Z" stroke="url(#paint0_linear_16_76)" stroke-width="1.5" stroke-linecap="round" stroke-linejoin="round"/>
<path d="M15.75 20.2222L21 14M21 14L26.25 20.2222M21 14L21 28" stroke="url(#paint1_linear_16_76)" stroke-width="1.5" stroke-linecap="round" stroke-linejoin="round"/>
<defs>
<linearGradient id="paint0_linear_16_76" x1="38.5" y1="21" x2="3.5" y2="21" gradientUnits="userSpaceOnUse">
<stop offset="0.1609" stop-color="#FF3F02"/>
<stop offset="0.687809" stop-color="#FF8B3D"/>
<stop offset="1" stop-color="#FF3F02"/>
</linearGradient>
<linearGradient id="paint1_linear_16_76" x1="21" y1="14" x2="21" y2="28" gradientUnits="userSpaceOnUse">
<stop offset="0.1609" stop-color="#FF3F02"/>
<stop offset="0.687809" stop-color="#FF8B3D"/>
<stop offset="1" stop-color="#FF3F02"/>
</linearGradient>
</defs>
</svg>
