<svg width="470" height="75" viewBox="0 0 470 75" fill="none" xmlns="http://www.w3.org/2000/svg">
<path d="M67.1602 44.3372C62.6065 62.5998 44.1074 73.7142 25.8405 69.16C7.58107 64.6068 -3.53462 46.1088 1.02118 27.8472C5.57271 9.58245 24.0719 -1.533 42.3334 3.02014C60.5993 7.57328 71.7139 26.0735 67.1602 44.3372Z" fill="#FF8B3D"/>
<path d="M49.1223 31.2337C49.801 26.6976 46.3469 24.2591 41.6238 22.6323L43.1559 16.4876L39.4152 15.5555L37.9235 21.5383C36.9402 21.2932 35.9301 21.0621 34.9265 20.833L36.4287 14.8108L32.6901 13.8787L31.157 20.0212C30.343 19.8359 29.5439 19.6527 28.7682 19.4598L28.7725 19.4407L23.6137 18.1527L22.6186 22.1476C22.6186 22.1476 25.394 22.7836 25.3354 22.823C26.8505 23.2012 27.1243 24.2036 27.0785 24.9984L25.3333 31.9985C25.4377 32.0252 25.573 32.0635 25.7222 32.1232C25.5975 32.0923 25.4644 32.0582 25.3269 32.0252L22.8807 41.8314C22.6953 42.2916 22.2254 42.9819 21.1664 42.7198C21.2037 42.7742 18.4474 42.0412 18.4474 42.0412L16.5903 46.3227L21.4583 47.5361C22.3639 47.763 23.2514 48.0006 24.1251 48.2243L22.577 54.4393L26.3135 55.3715L27.8467 49.2225C28.8673 49.4995 29.8582 49.7552 30.8277 49.9959L29.2999 56.1161L33.0407 57.0483L34.5887 50.845C40.9675 52.052 45.7641 51.5651 47.7831 45.7965C49.41 41.1517 47.7021 38.4725 44.346 36.7253C46.7901 36.1618 48.6312 34.5542 49.1223 31.2337ZM40.5754 43.2173C39.4194 47.8621 31.598 45.3512 29.0623 44.7216L31.1165 36.4878C33.6522 37.1206 41.7836 38.3734 40.5754 43.2173ZM41.7325 31.1665C40.6777 35.3916 34.1679 33.245 32.0562 32.7187L33.9186 25.2509C36.0303 25.7771 42.8309 26.7593 41.7325 31.1665Z" fill="white"/>
<ellipse cx="100.496" cy="36.0903" rx="34.3153" ry="34.0903" fill="#FF3F02"/>
<path fill-rule="evenodd" clip-rule="evenodd" d="M104.507 29.4228L93.9359 39.9107C93.7997 39.6483 93.6766 39.3749 93.5664 39.0912C93.1973 38.1383 93.0126 37.1272 93.0126 36.0595C93.0126 34.9908 93.1973 33.9802 93.5664 33.0273C93.9359 32.0739 94.4479 31.2469 95.1025 30.5449C95.7572 29.8433 96.5438 29.2884 97.4619 28.8798C98.3808 28.4716 99.3887 28.2672 100.486 28.2672C101.585 28.2672 102.598 28.4766 103.527 28.8959C103.872 29.0515 104.199 29.2269 104.507 29.4228ZM103.574 43.3014C102.656 43.71 101.648 43.9141 100.55 43.9141C99.4519 43.9141 98.4384 43.7045 97.5094 43.2858C97.1646 43.1297 96.8378 42.9542 96.5297 42.758L107.1 32.271C107.237 32.533 107.36 32.806 107.47 33.09C107.839 34.0429 108.024 35.054 108.024 36.1222C108.024 37.1904 107.839 38.2009 107.47 39.1544C107.1 40.1073 106.589 40.9344 105.934 41.6359C105.279 42.3375 104.493 42.8929 103.574 43.3014ZM105.174 46.5533C106.589 45.9458 107.813 45.1239 108.848 44.0865C109.882 43.05 110.684 41.8403 111.254 40.4578C111.825 39.0756 112.11 37.6093 112.11 36.0595C112.11 34.5092 111.825 33.043 111.254 31.6602C110.916 30.8403 110.5 30.0832 110.006 29.3885L116.882 22.5674L114.15 19.8569L107.253 26.6988C106.634 26.28 105.962 25.9179 105.237 25.6123C103.822 25.0155 102.26 24.7166 100.55 24.7166C98.8395 24.7166 97.2775 25.0205 95.8627 25.628C94.4479 26.2354 93.2232 27.0574 92.1888 28.0943C91.1543 29.1311 90.3519 30.341 89.7818 31.7233C89.2118 33.1057 88.9268 34.572 88.9268 36.1222C88.9268 37.6721 89.2118 39.1379 89.7818 40.5206C90.1203 41.3408 90.5364 42.098 91.0303 42.7931L84.1553 49.6135L86.8873 52.3239L93.7834 45.4824C94.4026 45.9013 95.0748 46.2634 95.7995 46.5689C97.2142 47.1657 98.7763 47.4643 100.486 47.4643C102.197 47.4643 103.759 47.1602 105.174 46.5533Z" fill="white"/>
<circle cx="166.902" cy="36.0903" r="34.0903" fill="black"/>
<g clip-path="url(#clip0_2002_92)">
<path d="M183.771 45.1583L178.144 51.1031C178.021 51.2323 177.873 51.3352 177.709 51.4056C177.544 51.476 177.367 51.5123 177.188 51.5122H150.51C150.382 51.5122 150.258 51.4755 150.151 51.4068C150.045 51.338 149.961 51.2401 149.911 51.1251C149.86 51.0101 149.844 50.8831 149.866 50.7595C149.887 50.6359 149.945 50.5212 150.032 50.4296L155.664 44.4847C155.786 44.3559 155.934 44.2531 156.097 44.1828C156.261 44.1124 156.438 44.076 156.617 44.0757H183.293C183.421 44.0757 183.545 44.1123 183.652 44.1811C183.758 44.2498 183.842 44.3477 183.893 44.4627C183.943 44.5777 183.959 44.7048 183.937 44.8283C183.916 44.9519 183.858 45.0666 183.771 45.1583ZM178.144 33.1869C178.021 33.0578 177.873 32.9548 177.709 32.8845C177.544 32.8141 177.367 32.7779 177.188 32.778H150.51C150.382 32.778 150.258 32.8146 150.151 32.8834C150.045 32.9521 149.961 33.05 149.911 33.165C149.86 33.28 149.844 33.4071 149.866 33.5306C149.887 33.6542 149.945 33.7688 150.032 33.8605L155.664 39.8054C155.786 39.9342 155.934 40.037 156.097 40.1073C156.261 40.1777 156.438 40.2141 156.617 40.2144H183.293C183.421 40.2144 183.545 40.1778 183.652 40.109C183.758 40.0403 183.842 39.9424 183.893 39.8274C183.943 39.7124 183.959 39.5853 183.937 39.4617C183.916 39.3382 183.858 39.2235 183.771 39.1318L178.144 33.1869ZM150.51 28.9167H177.188C177.367 28.9168 177.544 28.8805 177.709 28.8102C177.873 28.7398 178.021 28.6368 178.144 28.5077L183.771 22.5628C183.858 22.4711 183.916 22.3565 183.937 22.2329C183.959 22.1093 183.943 21.9822 183.893 21.8673C183.842 21.7523 183.758 21.6544 183.652 21.5856C183.545 21.5169 183.421 21.4802 183.293 21.4802H156.617C156.438 21.4805 156.261 21.517 156.097 21.5873C155.934 21.6577 155.786 21.7604 155.664 21.8892L150.034 27.8341C149.947 27.9257 149.889 28.0403 149.867 28.1637C149.846 28.2871 149.861 28.4141 149.912 28.529C149.962 28.644 150.046 28.7418 150.152 28.8107C150.258 28.8796 150.383 28.9164 150.51 28.9167Z" fill="#FF8B3D"/>
</g>
<rect x="198.992" y="2" width="68.1806" height="68.1806" rx="34.0903" fill="#FF8B3D"/>
<g clip-path="url(#clip1_2002_92)">
<path d="M254.284 21.221C253.81 19.426 252.286 17.631 249.543 15.6327C247.341 14.0409 245.004 13.1265 243.142 13.1265C242.769 13.1265 242.43 13.1603 242.092 13.2281C241.245 13.3974 240.5 14.007 240.026 14.9215C239.45 16.0053 239.315 17.4616 239.687 18.3422C239.823 18.6131 239.992 18.9518 240.195 19.2566C238.4 20.3404 237.384 20.6453 237.249 20.6791C241.922 22.2371 245.817 25.4884 248.256 29.722L248.29 29.3156C248.391 28.1979 248.73 26.9109 249.204 25.59C249.678 25.7255 250.152 25.7933 250.627 25.7933C251.88 25.7933 252.963 25.2852 253.641 24.3708C254.318 23.4563 254.589 22.2371 254.284 21.221Z" fill="#FF3F02"/>
<path d="M249.406 24.6093C252.488 25.456 253.741 23.0852 253.335 21.4934C252.895 19.9016 251.472 18.2759 248.966 16.447C246.46 14.6181 243.919 13.873 242.294 14.2117C240.668 14.5504 240.194 17.0228 240.6 17.9711C240.77 18.3436 241.142 18.8855 241.65 19.4952C241.007 19.9355 240.397 20.2741 239.889 20.579C243.005 21.9676 245.714 24.1351 247.747 26.8446C247.984 25.9302 248.322 25.1173 248.627 24.4061C248.864 24.44 249.135 24.5077 249.406 24.6093Z" fill="#FF3F02"/>
<path d="M231.76 57.8012C242.217 57.8012 250.693 49.3249 250.693 38.8687C250.693 28.4125 242.217 19.9363 231.76 19.9363C221.304 19.9363 212.828 28.4125 212.828 38.8687C212.828 49.3249 221.304 57.8012 231.76 57.8012Z" fill="white"/>
<path d="M251.778 19.9342C249.204 17.2247 247.036 16.5135 244.429 15.9377C242.397 15.4636 242.938 14.3121 245.411 14.5491C244.225 14.1427 243.108 14.0411 242.295 14.2105C240.669 14.5491 240.195 17.0215 240.601 17.9698C240.771 18.3424 241.143 18.8843 241.651 19.4939C240.737 20.1036 239.958 20.5438 239.314 20.8825C239.619 21.018 239.992 21.1873 240.432 21.4244C241.584 22.0341 242.837 23.0501 242.837 23.0501C240.94 21.4244 241.347 20.6793 243.954 18.8504C244.767 18.2747 246.258 18.3424 247.646 19.0536C249.035 19.7649 250.66 21.5599 250.66 21.5599L249.102 24.5403C249.204 24.5742 249.306 24.6081 249.407 24.6419C250.389 24.9129 251.168 24.8451 251.778 24.6081C252.489 24.1678 254.352 22.6776 251.778 19.9342Z" fill="#FF3F02"/>
<path d="M244.394 17.5647C245.071 17.8356 245.952 18.3098 247.035 19.021C248.322 19.8677 249.44 20.816 250.151 21.5611C248.966 23.1191 248.187 25.2528 247.713 26.743C247.95 27.0817 248.221 27.4204 248.458 27.7591C248.695 26.9124 249.101 25.6592 249.643 24.4061C249.779 24.44 249.948 24.44 250.117 24.44C250.524 24.44 250.998 24.3722 251.37 24.0674C251.641 23.8642 251.946 23.4916 251.912 22.8143C251.912 22.1708 251.404 21.3579 250.354 20.3757C249.609 19.6645 248.593 18.8855 247.577 18.1743C244.665 16.2438 242.632 15.7019 241.718 16.6164C241.108 17.226 241.176 17.9711 241.379 18.513C240.296 19.2242 239.381 19.7322 238.771 20.0709C239.178 20.2064 239.55 20.3757 239.957 20.5451C241.041 19.9693 242.599 18.9871 244.394 17.5647ZM250.795 22.4079C250.896 22.5772 250.93 22.7465 250.93 22.8481C250.93 23.153 250.829 23.2546 250.761 23.3223C250.625 23.4239 250.354 23.4916 250.117 23.4916C250.321 23.0852 250.558 22.7465 250.795 22.4079ZM242.429 17.3615C242.531 17.2599 242.802 17.1921 243.242 17.2599C242.903 17.5308 242.565 17.7679 242.226 18.005C242.192 17.7679 242.226 17.5308 242.429 17.3615Z" fill="#FF3F02"/>
<path d="M231.76 18.8162C220.685 18.8162 211.71 27.7913 211.71 38.8663C211.71 49.9412 220.685 58.9164 231.76 58.9164C242.835 58.9164 251.811 49.9412 251.811 38.8663C251.811 27.7913 242.802 18.8162 231.76 18.8162ZM231.76 57.7987C221.295 57.7987 212.828 49.3316 212.828 38.8663C212.828 28.4009 221.295 19.9338 231.76 19.9338C242.226 19.9338 250.693 28.4009 250.693 38.8663C250.693 49.3316 242.192 57.7987 231.76 57.7987Z" fill="#FF3F02"/>
<path d="M231.76 57.8012C242.217 57.8012 250.693 49.3249 250.693 38.8687C250.693 28.4125 242.217 19.9363 231.76 19.9363C221.304 19.9363 212.828 28.4125 212.828 38.8687C212.828 49.3249 221.304 57.8012 231.76 57.8012Z" fill="url(#paint0_linear_2002_92)"/>
<path d="M231.625 55.4986C221.295 53.839 214.285 44.1188 215.978 33.7889C216.723 29.2167 219.026 25.3218 222.278 22.5107C217.536 25.2541 214.014 30.0295 213.065 35.8549C211.406 46.1848 218.417 55.905 228.713 57.5645C234.47 58.5129 240.025 56.7178 244.123 53.1955C240.499 55.2954 236.096 56.2098 231.625 55.4986Z" fill="#FF3F02"/>
<path d="M234.776 20.2087C230.001 19.4298 225.361 20.5136 221.567 22.9182C221.5 22.9859 221.432 23.0537 221.432 23.0537C222.888 22.1731 225.022 21.3941 225.022 21.3941C219.535 24.5778 217.842 28.2017 217.842 28.2017C219.976 24.0697 226.241 21.1571 231.152 20.9538C236.063 20.7506 239.281 22.207 243.209 25.3567C247.138 28.5404 249.509 35.0431 249.272 40.1911C249.069 45.3391 246.359 49.5049 246.359 49.5049C248.222 47.1003 249.34 45.3391 250.051 43.5441C250.186 43.0022 250.322 42.4603 250.389 41.8845C252.083 31.5885 245.106 21.8683 234.776 20.2087Z" fill="url(#paint1_linear_2002_92)"/>
<path d="M249.746 38.699C249.746 48.6224 241.686 56.6831 231.762 56.6831C221.839 56.6831 213.744 48.6224 213.744 38.699H249.746Z" fill="#FF3F02"/>
<path d="M248.324 38.699C248.324 48.3853 240.669 56.3105 231.051 56.6831H231.762C241.685 56.6831 249.746 48.6224 249.746 38.699H248.324Z" fill="url(#paint2_linear_2002_92)"/>
<path d="M216.284 38.699H213.744C213.744 48.6224 221.805 56.6831 231.728 56.6831C232.169 56.6831 232.575 56.6831 232.982 56.6492C223.668 55.9719 216.284 48.1821 216.284 38.699Z" fill="#FF3F02"/>
<path d="M249.713 38.8701C249.713 36.8041 246.123 35.6187 241.347 35.2123C237.893 34.9414 234.404 35.28 230.408 36.4993C226.953 37.5154 223.837 37.346 221.568 37.0751C216.522 36.4993 213.744 36.4316 213.744 38.8701C213.744 42.3924 220.925 46.7953 231.695 45.2712C237.148 44.4922 239.959 42.9004 243.176 41.8166C246.665 40.6651 249.713 40.699 249.713 38.8701Z" fill="#FF3F02"/>
<path d="M242.633 32.6013C243.344 32.6013 243.92 32.0252 243.92 31.3143C243.92 30.6034 243.344 30.0273 242.633 30.0273C241.922 30.0273 241.346 30.6034 241.346 31.3143C241.346 32.0252 241.922 32.6013 242.633 32.6013Z" fill="white"/>
<path d="M237.653 30.3309C239.337 30.3309 240.702 28.9664 240.702 27.2828C240.702 25.5992 239.337 24.2346 237.653 24.2346C235.97 24.2346 234.605 25.5992 234.605 27.2828C234.605 28.9664 235.97 30.3309 237.653 30.3309Z" fill="white"/>
<path d="M247.241 24.8474H247.173C246.97 24.8135 246.834 24.6103 246.868 24.3732C247.173 22.8153 248.46 21.3251 248.528 21.2573C248.663 21.088 248.934 21.088 249.069 21.2235C249.239 21.3589 249.239 21.6299 249.103 21.7654C249.069 21.7992 247.884 23.1878 247.613 24.5426C247.579 24.7458 247.41 24.8474 247.241 24.8474Z" fill="url(#paint3_linear_2002_92)"/>
<path d="M243.14 13.1275C245.037 13.1275 247.373 14.042 249.541 15.6338C252.284 17.632 253.808 19.3932 254.283 21.2221C254.554 22.272 254.317 23.4574 253.639 24.338C252.928 25.2524 251.878 25.7604 250.625 25.7604C250.185 25.7604 249.71 25.6927 249.202 25.5572C248.898 26.3362 248.66 27.1152 248.491 27.8603C250.557 31.01 251.776 34.8033 251.776 38.8675C251.776 49.9425 242.801 58.9176 231.726 58.9176C220.651 58.9176 211.71 49.9425 211.71 38.8675C211.71 27.7925 220.685 18.8174 231.76 18.8174C234.199 18.8174 236.536 19.2577 238.703 20.0705C239.11 19.8673 239.618 19.5964 240.193 19.2577C239.99 18.9529 239.787 18.6481 239.685 18.3433C239.313 17.4288 239.448 16.0063 240.024 14.9225C240.498 14.042 241.209 13.4323 242.09 13.2291C242.395 13.1614 242.767 13.1275 243.14 13.1275ZM243.14 12.5518C242.734 12.5518 242.327 12.5856 241.955 12.6872C240.938 12.9243 240.058 13.6017 239.482 14.6855C238.839 15.9386 238.669 17.5643 239.11 18.6142C239.177 18.7497 239.245 18.919 239.347 19.0884C239.11 19.2238 238.873 19.3593 238.635 19.4609C236.4 18.6819 234.097 18.2755 231.726 18.2755C228.949 18.2755 226.24 18.8174 223.699 19.9012C221.227 20.9511 219.026 22.4413 217.129 24.338C215.232 26.2346 213.742 28.436 212.692 30.9084C211.608 33.4486 211.067 36.158 211.067 38.9353C211.067 41.7125 211.608 44.4219 212.692 46.9621C213.742 49.4345 215.232 51.6359 217.129 53.5325C219.026 55.4292 221.227 56.9194 223.699 57.9693C226.24 59.0531 228.949 59.595 231.726 59.595C234.503 59.595 237.213 59.0531 239.753 57.9693C242.225 56.9194 244.427 55.4292 246.324 53.5325C248.22 51.6359 249.71 49.4345 250.76 46.9621C251.844 44.4219 252.386 41.7125 252.386 38.9353C252.386 34.9726 251.268 31.1455 249.135 27.8264C249.236 27.3184 249.406 26.8104 249.575 26.3023C249.914 26.3701 250.286 26.4039 250.625 26.4039C252.047 26.4039 253.3 25.8282 254.113 24.7444C254.892 23.7283 255.197 22.3059 254.858 21.1205C254.317 19.1561 252.759 17.2933 249.88 15.2274C247.611 13.5001 245.138 12.5518 243.14 12.5518Z" fill="white"/>
<path d="M233.015 54.7181C233.408 54.7181 233.726 54.3998 233.726 54.0069C233.726 53.614 233.408 53.2957 233.015 53.2957C232.622 53.2957 232.303 53.614 232.303 54.0069C232.303 54.3998 232.622 54.7181 233.015 54.7181Z" fill="white" fill-opacity="0.2"/>
<path d="M232.608 54.448C232.337 54.177 232.337 53.7029 232.608 53.4319C232.642 53.3981 232.71 53.3642 232.744 53.3303C232.642 53.3642 232.574 53.4319 232.507 53.4997C232.236 53.7706 232.236 54.2448 232.507 54.5157C232.744 54.7528 233.082 54.7867 233.387 54.6173C233.116 54.7189 232.812 54.6512 232.608 54.448Z" fill="url(#paint4_linear_2002_92)"/>
<path d="M233.252 53.7678C233.327 53.7678 233.388 53.7072 233.388 53.6323C233.388 53.5575 233.327 53.4968 233.252 53.4968C233.177 53.4968 233.117 53.5575 233.117 53.6323C233.117 53.7072 233.177 53.7678 233.252 53.7678Z" fill="white" fill-opacity="0.3"/>
<path d="M237.382 54.2123C237.775 54.2123 238.093 53.8939 238.093 53.501C238.093 53.1082 237.775 52.7898 237.382 52.7898C236.989 52.7898 236.671 53.1082 236.671 53.501C236.671 53.8939 236.989 54.2123 237.382 54.2123Z" fill="white" fill-opacity="0.2"/>
<path d="M236.976 53.9367C236.705 53.6658 236.705 53.1916 236.976 52.9207C237.01 52.8868 237.077 52.853 237.111 52.8191C237.01 52.853 236.942 52.9207 236.874 52.9884C236.603 53.2594 236.603 53.7335 236.874 54.0045C237.111 54.2416 237.45 54.2754 237.755 54.1061C237.484 54.2077 237.179 54.14 236.976 53.9367Z" fill="url(#paint5_linear_2002_92)"/>
<path d="M237.62 53.2624C237.695 53.2624 237.755 53.2018 237.755 53.1269C237.755 53.0521 237.695 52.9915 237.62 52.9915C237.545 52.9915 237.484 53.0521 237.484 53.1269C237.484 53.2018 237.545 53.2624 237.62 53.2624Z" fill="white" fill-opacity="0.3"/>
<path d="M230.508 52.9918C231.032 52.9918 231.456 52.5671 231.456 52.0435C231.456 51.5199 231.032 51.0952 230.508 51.0952C229.984 51.0952 229.56 51.5199 229.56 52.0435C229.56 52.5671 229.984 52.9918 230.508 52.9918Z" fill="white" fill-opacity="0.2"/>
<path d="M229.966 52.6535C229.593 52.2809 229.593 51.6713 229.966 51.2987C230.033 51.231 230.101 51.1971 230.169 51.1294C230.033 51.1633 229.932 51.231 229.83 51.3326C229.458 51.7052 229.458 52.3148 229.83 52.6873C230.135 52.9922 230.609 53.0599 230.982 52.8567C230.643 52.9922 230.237 52.9244 229.966 52.6535Z" fill="url(#paint6_linear_2002_92)"/>
<path d="M230.846 51.7712C230.958 51.7712 231.049 51.6801 231.049 51.568C231.049 51.4559 230.958 51.3647 230.846 51.3647C230.734 51.3647 230.643 51.4559 230.643 51.568C230.643 51.6801 230.734 51.7712 230.846 51.7712Z" fill="white" fill-opacity="0.3"/>
<path d="M235.453 52.5145C235.976 52.5145 236.401 52.0898 236.401 51.5662C236.401 51.0426 235.976 50.6179 235.453 50.6179C234.929 50.6179 234.505 51.0426 234.505 51.5662C234.505 52.0898 234.929 52.5145 235.453 52.5145Z" fill="white" fill-opacity="0.2"/>
<path d="M234.911 52.1769C234.538 51.8044 234.538 51.1947 234.911 50.8222C234.979 50.7544 235.046 50.7206 235.114 50.6528C234.979 50.6867 234.877 50.7544 234.775 50.856C234.403 51.2286 234.403 51.8382 234.775 52.2108C235.08 52.5156 235.554 52.5833 235.927 52.3801C235.588 52.5156 235.182 52.4479 234.911 52.1769Z" fill="url(#paint7_linear_2002_92)"/>
<path d="M235.791 51.2946C235.903 51.2946 235.994 51.2035 235.994 51.0914C235.994 50.9793 235.903 50.8882 235.791 50.8882C235.679 50.8882 235.588 50.9793 235.588 51.0914C235.588 51.2035 235.679 51.2946 235.791 51.2946Z" fill="white" fill-opacity="0.3"/>
<path d="M226.477 52.6535C227.338 52.6535 228.035 51.9561 228.035 51.0955C228.035 50.2353 227.338 49.5376 226.477 49.5376C225.617 49.5376 224.919 50.2353 224.919 51.0955C224.919 51.9561 225.617 52.6535 226.477 52.6535Z" fill="white" fill-opacity="0.2"/>
<path d="M225.597 52.0735C224.987 51.4639 224.987 50.4817 225.597 49.8721C225.698 49.7705 225.8 49.7027 225.935 49.635C225.732 49.7027 225.563 49.8382 225.393 49.9737C224.784 50.5833 224.784 51.5655 225.393 52.1751C225.901 52.6832 226.68 52.7848 227.29 52.4122C226.714 52.6493 226.037 52.5477 225.597 52.0735Z" fill="url(#paint8_linear_2002_92)"/>
<path d="M227.019 50.6175C227.206 50.6175 227.358 50.4658 227.358 50.2789C227.358 50.0919 227.206 49.9402 227.019 49.9402C226.832 49.9402 226.68 50.0919 226.68 50.2789C226.68 50.4658 226.832 50.6175 227.019 50.6175Z" fill="white" fill-opacity="0.3"/>
<path d="M240.398 48.8259C241.259 48.8259 241.956 48.1285 241.956 47.2679C241.956 46.4076 241.259 45.71 240.398 45.71C239.538 45.71 238.84 46.4076 238.84 47.2679C238.84 48.1285 239.538 48.8259 240.398 48.8259Z" fill="white" fill-opacity="0.2"/>
<path d="M239.484 48.2466C238.874 47.637 238.874 46.6548 239.484 46.0452C239.585 45.9436 239.687 45.8758 239.822 45.8081C239.619 45.8758 239.45 46.0113 239.28 46.1468C238.671 46.7564 238.671 47.7386 239.28 48.3482C239.788 48.8563 240.567 48.9579 241.177 48.5853C240.601 48.8224 239.958 48.7208 239.484 48.2466Z" fill="url(#paint9_linear_2002_92)"/>
<path d="M240.94 46.7899C241.127 46.7899 241.279 46.6382 241.279 46.4512C241.279 46.2643 241.127 46.1125 240.94 46.1125C240.753 46.1125 240.602 46.2643 240.602 46.4512C240.602 46.6382 240.753 46.7899 240.94 46.7899Z" fill="white" fill-opacity="0.3"/>
</g>
<circle cx="299.263" cy="36.0903" r="34.0903" fill="#FF3F02"/>
<path fill-rule="evenodd" clip-rule="evenodd" d="M298.511 16.995L286.906 35.4631C286.768 35.5761 286.674 35.7298 286.633 35.8975L286.276 36.466L299.263 43.9815L312.25 36.466L300.015 16.995C299.979 16.9071 299.928 16.8269 299.866 16.7576L299.263 15.7983L298.66 16.7576C298.597 16.8269 298.547 16.9071 298.511 16.995ZM298.451 20.1412L289.665 34.1233L298.451 29.941V20.1412ZM298.451 31.7389L289.067 36.2058L298.451 41.6362V31.7389ZM300.074 41.6362V31.7576L309.302 36.2964L300.074 41.6362ZM300.074 29.9485V20.1412L308.994 34.3359L300.074 29.9485ZM299.168 46.1813L286.276 38.7206L299.263 56.382L312.25 38.7206L299.357 46.1813C299.326 46.1777 299.295 46.1759 299.263 46.1759C299.231 46.1759 299.199 46.1777 299.168 46.1813ZM298.451 47.642L292.184 44.0153L298.451 52.5379V47.642ZM300.074 52.5379L306.341 44.0153L300.074 47.642V52.5379Z" fill="white"/>
<ellipse cx="365.668" cy="36.0903" rx="34.3153" ry="34.0903" fill="#FF8B3D"/>
<path fill-rule="evenodd" clip-rule="evenodd" d="M368.215 14.175L369.23 14.1751L355.793 32.3163L368.937 48.0219H367.884L354.23 32.3594L368.215 14.175Z" fill="white"/>
<path fill-rule="evenodd" clip-rule="evenodd" d="M360.862 14.175H361.992L348.44 32.3163L361.698 48.0219L360.53 48.0218L346.877 32.3594L360.862 14.175Z" fill="white"/>
<path d="M373.313 14.4592L373.082 15.2176V37.2222L373.313 37.4449L383.854 31.4073L373.313 14.4592Z" fill="white"/>
<path d="M373.31 14.4592L362.769 31.4073L373.31 37.4449V26.7645V14.4592Z" fill="#EECBC0"/>
<path d="M373.313 39.3787L373.183 39.5322V47.3706L373.313 47.7379L383.86 33.3442L373.313 39.3787Z" fill="white"/>
<path d="M373.31 47.7379V39.3787L362.769 33.3442L373.31 47.7379Z" fill="#EECBC0"/>
<path d="M373.309 37.4446L383.85 31.4069L373.309 26.7642V37.4446Z" fill="white"/>
<path d="M362.769 31.4069L373.31 37.4446V26.7642L362.769 31.4069Z" fill="white"/>
<path fill-rule="evenodd" clip-rule="evenodd" d="M347.694 51.0152C347.694 50.55 347.949 50.1729 348.264 50.1729C349.853 50.1729 350.675 50.7611 351.439 51.3108L351.448 51.3173C352.144 51.818 352.783 52.2786 354.114 52.2786C355.445 52.2786 356.085 51.8179 356.781 51.317L356.789 51.3108C357.553 50.7612 358.376 50.1729 359.964 50.1729C361.552 50.1729 362.375 50.7612 363.139 51.3108L363.147 51.3168C363.843 51.8177 364.484 52.2786 365.816 52.2786C367.147 52.2786 367.787 51.8179 368.483 51.3171L368.492 51.3108C369.255 50.7611 370.078 50.1729 371.667 50.1729C373.256 50.1729 374.079 50.7611 374.842 51.3108L374.851 51.3171C375.547 51.8179 376.187 52.2786 377.519 52.2786C378.85 52.2786 379.49 51.8179 380.186 51.3171L380.195 51.3108C380.958 50.7611 381.781 50.1729 383.37 50.1729C383.685 50.1729 383.94 50.55 383.94 51.0152C383.94 51.4804 383.685 51.8575 383.37 51.8575C382.039 51.8575 381.399 52.3182 380.703 52.819L380.694 52.8253C379.93 53.375 379.107 53.9632 377.519 53.9632C375.93 53.9632 375.107 53.375 374.343 52.8253L374.335 52.819C373.639 52.3182 372.999 51.8575 371.667 51.8575C370.336 51.8575 369.695 52.3182 369 52.819L368.991 52.8253C368.227 53.375 367.404 53.9632 365.816 53.9632C364.227 53.9632 363.404 53.375 362.64 52.8253L362.631 52.8189C361.935 52.3181 361.295 51.8575 359.964 51.8575C358.633 51.8575 357.993 52.3182 357.297 52.8191L357.289 52.8253C356.525 53.3749 355.702 53.9632 354.114 53.9632C352.526 53.9632 351.703 53.3749 350.94 52.8253L350.931 52.8192C350.236 52.3183 349.595 51.8575 348.264 51.8575C347.949 51.8575 347.694 51.4804 347.694 51.0152Z" fill="white"/>
<path fill-rule="evenodd" clip-rule="evenodd" d="M347.694 54.8057C347.694 54.3405 347.949 53.9634 348.264 53.9634C349.853 53.9634 350.675 54.5517 351.439 55.1014L351.448 55.1078C352.144 55.6086 352.783 56.0692 354.114 56.0692C355.445 56.0692 356.085 55.6084 356.781 55.1076L356.789 55.1013C357.553 54.5517 358.376 53.9634 359.964 53.9634C361.552 53.9634 362.375 54.5517 363.139 55.1013L363.147 55.1074C363.843 55.6083 364.484 56.0692 365.816 56.0692C367.147 56.0692 367.787 55.6084 368.483 55.1076L368.492 55.1013C369.255 54.5517 370.078 53.9634 371.667 53.9634C373.256 53.9634 374.079 54.5517 374.842 55.1013L374.851 55.1076C375.547 55.6084 376.187 56.0692 377.519 56.0692C378.85 56.0692 379.49 55.6084 380.186 55.1076L380.195 55.1013C380.958 54.5517 381.781 53.9634 383.37 53.9634C383.685 53.9634 383.94 54.3405 383.94 54.8057C383.94 55.2709 383.685 55.648 383.37 55.648C382.039 55.648 381.399 56.1088 380.703 56.6096L380.694 56.6158C379.93 57.1655 379.107 57.7538 377.519 57.7538C375.93 57.7538 375.107 57.1655 374.343 56.6158L374.335 56.6096C373.639 56.1088 372.999 55.648 371.667 55.648C370.336 55.648 369.695 56.1088 369 56.6096L368.991 56.6158C368.227 57.1655 367.404 57.7538 365.816 57.7538C364.227 57.7538 363.404 57.1655 362.64 56.6159L362.631 56.6095C361.935 56.1086 361.295 55.648 359.964 55.648C358.633 55.648 357.993 56.1087 357.297 56.6096L357.289 56.6158C356.525 57.1655 355.702 57.7538 354.114 57.7538C352.526 57.7538 351.703 57.1654 350.94 56.6158L350.931 56.6097C350.236 56.1089 349.595 55.648 348.264 55.648C347.949 55.648 347.694 55.2709 347.694 54.8057Z" fill="white"/>
<g filter="url(#filter0_d_2002_92)">
<circle cx="432.074" cy="36.0903" r="34.0903" fill="#F83F05"/>
<path d="M451.423 49.7883L441.536 32.6322L436.898 24.5896L431.648 15.4817C431.561 15.3313 431.436 15.2063 431.286 15.1194C431.135 15.0326 430.964 14.9868 430.791 14.9868C430.617 14.9868 430.446 15.0326 430.296 15.1194C430.145 15.2063 430.021 15.3313 429.934 15.4817L420.023 32.6194L415.973 39.6223C415.886 39.7728 415.841 39.9436 415.841 40.1174C415.84 40.2912 415.886 40.462 415.973 40.6126C416.06 40.7632 416.185 40.8883 416.335 40.9752C416.486 41.0622 416.657 41.108 416.83 41.1081L424.48 41.1129C424.654 41.1129 424.825 41.0673 424.975 40.9806C425.126 40.8939 425.251 40.7692 425.338 40.619L429.314 33.7422L429.922 32.6905C429.946 32.6499 429.972 32.611 430.002 32.574C430.102 32.4468 430.231 32.3462 430.379 32.2808C430.528 32.2154 430.689 32.1873 430.851 32.199C431.012 32.2107 431.168 32.2617 431.305 32.3476C431.443 32.4336 431.557 32.5519 431.637 32.6921L435.763 39.8481L436.526 41.1703C436.568 41.2436 436.601 41.3215 436.624 41.4025C436.664 41.5497 436.67 41.7042 436.641 41.8539C436.611 42.0037 436.548 42.1447 436.455 42.2659C436.363 42.3871 436.243 42.4852 436.106 42.5526C435.969 42.6201 435.819 42.6549 435.666 42.6545L426.667 42.649C426.493 42.649 426.322 42.6946 426.172 42.7813C426.021 42.868 425.896 42.9927 425.809 43.1429L421.979 49.7659C421.892 49.9163 421.846 50.087 421.846 50.2607C421.846 50.4345 421.891 50.6052 421.978 50.7557C422.065 50.9062 422.19 51.0312 422.34 51.1182C422.491 51.2051 422.661 51.2509 422.835 51.2509L430.766 51.2565L440.655 51.2629L450.564 51.2693C450.738 51.2694 450.908 51.2239 451.058 51.1374C451.209 51.0509 451.334 50.9264 451.421 50.7764C451.508 50.6264 451.554 50.4562 451.554 50.2827C451.555 50.1093 451.51 49.9388 451.423 49.7883Z" fill="white"/>
</g>
<defs>
<filter id="filter0_d_2002_92" x="394.984" y="0" width="74.1806" height="74.1807" filterUnits="userSpaceOnUse" color-interpolation-filters="sRGB">
<feFlood flood-opacity="0" result="BackgroundImageFix"/>
<feColorMatrix in="SourceAlpha" type="matrix" values="0 0 0 0 0 0 0 0 0 0 0 0 0 0 0 0 0 0 127 0" result="hardAlpha"/>
<feOffset dy="1"/>
<feGaussianBlur stdDeviation="1.5"/>
<feColorMatrix type="matrix" values="0 0 0 0 0.129412 0 0 0 0 0.105882 0 0 0 0 0.305882 0 0 0 0.15 0"/>
<feBlend mode="normal" in2="BackgroundImageFix" result="effect1_dropShadow_2002_92"/>
<feBlend mode="normal" in="SourceGraphic" in2="effect1_dropShadow_2002_92" result="shape"/>
</filter>
<linearGradient id="paint0_linear_2002_92" x1="228.723" y1="57.5326" x2="234.779" y2="20.1734" gradientUnits="userSpaceOnUse">
<stop stop-color="#81FFFF" stop-opacity="0.6"/>
<stop offset="0.62" stop-color="white" stop-opacity="0"/>
<stop offset="1" stop-color="white" stop-opacity="0"/>
</linearGradient>
<linearGradient id="paint1_linear_2002_92" x1="245.104" y1="26.0126" x2="229.449" y2="40.3769" gradientUnits="userSpaceOnUse">
<stop stop-color="white" stop-opacity="0.6"/>
<stop offset="0.29" stop-color="white" stop-opacity="0.6"/>
<stop offset="0.78" stop-color="white" stop-opacity="0"/>
<stop offset="1" stop-color="white" stop-opacity="0"/>
</linearGradient>
<linearGradient id="paint2_linear_2002_92" x1="251.44" y1="40.2771" x2="231.858" y2="58.784" gradientUnits="userSpaceOnUse">
<stop stop-color="white" stop-opacity="0.6"/>
<stop offset="0.29" stop-color="white" stop-opacity="0.6"/>
<stop offset="0.78" stop-color="white" stop-opacity="0"/>
<stop offset="1" stop-color="white" stop-opacity="0"/>
</linearGradient>
<linearGradient id="paint3_linear_2002_92" x1="249.124" y1="21.0924" x2="246.542" y2="25.2887" gradientUnits="userSpaceOnUse">
<stop stop-color="white" stop-opacity="0.6"/>
<stop offset="0.29" stop-color="white" stop-opacity="0.6"/>
<stop offset="0.78" stop-color="white" stop-opacity="0"/>
<stop offset="1" stop-color="white" stop-opacity="0"/>
</linearGradient>
<linearGradient id="paint4_linear_2002_92" x1="232.299" y1="54.0158" x2="233.375" y2="54.0158" gradientUnits="userSpaceOnUse">
<stop stop-color="white" stop-opacity="0.6"/>
<stop offset="0.29" stop-color="white" stop-opacity="0.6"/>
<stop offset="0.78" stop-color="white" stop-opacity="0"/>
<stop offset="1" stop-color="white" stop-opacity="0"/>
</linearGradient>
<linearGradient id="paint5_linear_2002_92" x1="236.652" y1="53.5032" x2="237.728" y2="53.5032" gradientUnits="userSpaceOnUse">
<stop stop-color="white" stop-opacity="0.6"/>
<stop offset="0.29" stop-color="white" stop-opacity="0.6"/>
<stop offset="0.78" stop-color="white" stop-opacity="0"/>
<stop offset="1" stop-color="white" stop-opacity="0"/>
</linearGradient>
<linearGradient id="paint6_linear_2002_92" x1="229.55" y1="52.073" x2="230.983" y2="52.073" gradientUnits="userSpaceOnUse">
<stop stop-color="white" stop-opacity="0.6"/>
<stop offset="0.29" stop-color="white" stop-opacity="0.6"/>
<stop offset="0.78" stop-color="white" stop-opacity="0"/>
<stop offset="1" stop-color="white" stop-opacity="0"/>
</linearGradient>
<linearGradient id="paint7_linear_2002_92" x1="234.491" y1="51.59" x2="235.924" y2="51.59" gradientUnits="userSpaceOnUse">
<stop stop-color="white" stop-opacity="0.6"/>
<stop offset="0.29" stop-color="white" stop-opacity="0.6"/>
<stop offset="0.78" stop-color="white" stop-opacity="0"/>
<stop offset="1" stop-color="white" stop-opacity="0"/>
</linearGradient>
<linearGradient id="paint8_linear_2002_92" x1="224.921" y1="51.131" x2="227.261" y2="51.131" gradientUnits="userSpaceOnUse">
<stop stop-color="white" stop-opacity="0.6"/>
<stop offset="0.29" stop-color="white" stop-opacity="0.6"/>
<stop offset="0.78" stop-color="white" stop-opacity="0"/>
<stop offset="1" stop-color="white" stop-opacity="0"/>
</linearGradient>
<linearGradient id="paint9_linear_2002_92" x1="238.821" y1="47.3031" x2="241.161" y2="47.3031" gradientUnits="userSpaceOnUse">
<stop stop-color="white" stop-opacity="0.6"/>
<stop offset="0.29" stop-color="white" stop-opacity="0.6"/>
<stop offset="0.78" stop-color="white" stop-opacity="0"/>
<stop offset="1" stop-color="white" stop-opacity="0"/>
</linearGradient>
<clipPath id="clip0_2002_92">
<rect width="34.0903" height="30.0319" fill="white" transform="translate(149.856 21.4802)"/>
</clipPath>
<clipPath id="clip1_2002_92">
<rect width="47.0771" height="47.0771" fill="white" transform="translate(209.544 12.5518)"/>
</clipPath>
</defs>
</svg>
