<svg width="250" height="55" viewBox="0 0 250 55" fill="none" xmlns="http://www.w3.org/2000/svg">
<path fill-rule="evenodd" clip-rule="evenodd" d="M6.12673 1.25C6.12673 0.697715 5.67901 0.25 5.12673 0.25C4.57444 0.25 4.12673 0.697715 4.12673 1.25L4.12672 10.9034H2C0.895431 10.9034 0 11.7988 0 12.9034V36.3777C0 37.4822 0.895432 38.3777 2 38.3777H4.12672V39.6203C4.12672 40.1726 4.57444 40.6203 5.12672 40.6203C5.67901 40.6203 6.12672 40.1726 6.12672 39.6203V38.3777H8.31687C9.42144 38.3777 10.3169 37.4822 10.3169 36.3777V12.9034C10.3169 11.7988 9.42144 10.9034 8.31687 10.9034H6.12672L6.12673 1.25Z" fill="url(#paint0_linear_43_378)"/>
<path fill-rule="evenodd" clip-rule="evenodd" d="M35.1934 1.25C35.1934 0.697715 34.7457 0.25 34.1934 0.25C33.6411 0.25 33.1934 0.697715 33.1934 1.25L33.1934 10.9034H31.0667C29.9621 10.9034 29.0667 11.7988 29.0667 12.9034V36.3777C29.0667 37.4822 29.9621 38.3777 31.0667 38.3777H33.1934V39.6203C33.1934 40.1726 33.6411 40.6203 34.1934 40.6203C34.7457 40.6203 35.1934 40.1726 35.1934 39.6203V38.3777H37.3835C38.4881 38.3777 39.3835 37.4822 39.3835 36.3777V12.9034C39.3835 11.7988 38.4881 10.9034 37.3835 10.9034H35.1934L35.1934 1.25Z" fill="url(#paint1_linear_43_378)"/>
<path fill-rule="evenodd" clip-rule="evenodd" d="M20.66 9.32397C20.66 8.77169 20.2123 8.32397 19.66 8.32397C19.1078 8.32397 18.66 8.77169 18.66 9.32397L18.6601 17.6092H16.5333C15.4288 17.6092 14.5333 18.5046 14.5333 19.6092V44.4964C14.5333 45.601 15.4288 46.4964 16.5333 46.4964H18.6601L18.6601 53.7499C18.6601 54.3022 19.1078 54.7499 19.6601 54.7499C20.2123 54.7499 20.6601 54.3022 20.6601 53.7499L20.6601 46.4964H22.8502C23.9548 46.4964 24.8502 45.601 24.8502 44.4964V19.6092C24.8502 18.5046 23.9548 17.6092 22.8502 17.6092H20.6601L20.66 9.32397Z" fill="url(#paint2_linear_43_378)"/>
<path d="M68.7352 36.7562C67.1126 36.7562 65.6693 36.3975 64.4053 35.6801C63.1584 34.9457 62.1677 33.9208 61.4332 32.6056C60.7158 31.2733 60.3571 29.7104 60.3571 27.9169C60.3571 26.1235 60.7158 24.5691 61.4332 23.2539C62.1677 21.9216 63.1584 20.8968 64.4053 20.1794C65.6693 19.4449 67.1126 19.0777 68.7352 19.0777C70.1188 19.0777 71.3742 19.3339 72.5015 19.8463C73.6289 20.3416 74.5171 21.0505 75.1661 21.9728C75.8323 22.8952 76.1654 23.9884 76.1654 25.2523V25.5086H74.9612V25.2523C74.9612 23.6638 74.4146 22.4255 73.3214 21.5373C72.2453 20.6491 70.7166 20.205 68.7352 20.205C67.2492 20.205 65.9682 20.5039 64.8921 21.1017C63.816 21.6996 62.9876 22.5707 62.4068 23.7151C61.8261 24.8595 61.5357 26.2601 61.5357 27.9169C61.5357 29.5567 61.8261 30.9573 62.4068 32.1188C62.9876 33.2632 63.816 34.1343 64.8921 34.7321C65.9682 35.33 67.2492 35.6289 68.7352 35.6289C70.7166 35.6289 72.2453 35.1848 73.3214 34.2966C74.4146 33.4084 74.9612 32.17 74.9612 30.5815V30.3253H76.1654V30.5815C76.1654 31.8284 75.8323 32.9216 75.1661 33.861C74.5171 34.7834 73.6289 35.5008 72.5015 36.0132C71.3742 36.5085 70.1188 36.7562 68.7352 36.7562ZM80.0171 36.5H78.8642V19.3339H86.9092C88.0365 19.3339 89.0357 19.5303 89.9069 19.9232C90.7951 20.2989 91.4868 20.8541 91.9822 21.5885C92.4775 22.323 92.7252 23.2027 92.7252 24.2275C92.7252 25.2182 92.4861 26.0722 92.0078 26.7896C91.5466 27.4899 90.9061 28.0365 90.0862 28.4294C89.2834 28.8051 88.344 29.0016 87.2679 29.0186V29.1211C87.7632 29.2407 88.1817 29.4713 88.5233 29.8129C88.882 30.1545 89.2066 30.5644 89.4969 31.0427L92.9558 36.5H91.6747L88.3696 31.3502C88.0792 30.8548 87.7547 30.4534 87.396 30.146C87.0373 29.8385 86.5932 29.6079 86.0637 29.4542C85.5513 29.3005 84.8937 29.2236 84.0909 29.2236H80.0171V36.5ZM80.0171 20.3843V28.2244H86.9092C88.3952 28.2244 89.5396 27.9084 90.3424 27.2764C91.1452 26.6444 91.5466 25.6537 91.5466 24.3044C91.5466 22.9721 91.1452 21.9899 90.3424 21.3579C89.5396 20.7089 88.3952 20.3843 86.9092 20.3843H80.0171ZM101.989 30.4534H101.144L93.6111 19.3339H94.9434L100.17 26.9946L101.579 29.0443H101.656L103.04 26.9946L108.215 19.3339H109.573L101.989 30.4534ZM102.143 36.5H101.016V29.4286H102.143V36.5ZM118.748 30.6584H111.831V29.6079H118.697C120.354 29.6079 121.627 29.2407 122.515 28.5062C123.403 27.7547 123.847 26.5846 123.847 24.9961C123.847 23.4247 123.403 22.2632 122.515 21.5117C121.627 20.7601 120.354 20.3843 118.697 20.3843H111.831V19.3339H118.748C119.961 19.3339 121.037 19.5559 121.977 20C122.916 20.4441 123.651 21.0932 124.18 21.9472C124.727 22.7842 125 23.8005 125 24.9961C125 26.1918 124.727 27.2081 124.18 28.045C123.651 28.882 122.916 29.5311 121.977 29.9922C121.037 30.4363 119.961 30.6584 118.748 30.6584ZM112.369 36.5H111.216V19.3339H112.369V36.5ZM134.199 36.5H133.071V19.3339H134.199V36.5ZM141.475 20.3843H125.769V19.3339H141.475V20.3843ZM151.206 36.7562C149.583 36.7562 148.131 36.3975 146.85 35.6801C145.569 34.9457 144.561 33.9208 143.827 32.6056C143.092 31.2733 142.725 29.7104 142.725 27.9169C142.725 26.1235 143.092 24.5691 143.827 23.2539C144.561 21.9216 145.569 20.8968 146.85 20.1794C148.131 19.4449 149.583 19.0777 151.206 19.0777C152.862 19.0777 154.323 19.4449 155.587 20.1794C156.851 20.8968 157.85 21.9216 158.584 23.2539C159.319 24.5691 159.686 26.1235 159.686 27.9169C159.686 29.7104 159.319 31.2733 158.584 32.6056C157.85 33.9208 156.851 34.9457 155.587 35.6801C154.323 36.3975 152.862 36.7562 151.206 36.7562ZM151.206 35.6289C152.726 35.6289 154.024 35.33 155.1 34.7321C156.193 34.1343 157.03 33.2632 157.611 32.1188C158.209 30.9573 158.508 29.5567 158.508 27.9169C158.508 26.2601 158.209 24.8595 157.611 23.7151C157.03 22.5707 156.193 21.6996 155.1 21.1017C154.024 20.5039 152.726 20.205 151.206 20.205C149.702 20.205 148.404 20.5039 147.311 21.1017C146.218 21.6996 145.372 22.5707 144.775 23.7151C144.194 24.8595 143.903 26.2601 143.903 27.9169C143.903 29.5567 144.194 30.9573 144.775 32.1188C145.372 33.2632 146.218 34.1343 147.311 34.7321C148.404 35.33 149.702 35.6289 151.206 35.6289ZM166.277 36.5H161.461V19.3339H166.277V36.5ZM176.423 30.5303H162.767V26.2259H176.423V30.5303ZM176.808 23.6638H162.767V19.3339H176.808V23.6638ZM182.891 36.5H178.074V19.3339H182.891V36.5ZM192.806 36.5H179.407V32.17H192.806V36.5ZM203.337 36.7562C201.355 36.7562 199.647 36.3975 198.212 35.6801C196.795 34.9457 195.71 33.9208 194.959 32.6056C194.207 31.2733 193.831 29.7104 193.831 27.9169C193.831 26.1235 194.207 24.5691 194.959 23.2539C195.71 21.9216 196.795 20.8968 198.212 20.1794C199.647 19.4449 201.355 19.0777 203.337 19.0777C205.386 19.0777 207.12 19.4449 208.538 20.1794C209.972 20.8968 211.066 21.9216 211.817 23.2539C212.569 24.5691 212.945 26.1235 212.945 27.9169C212.945 29.7104 212.569 31.2733 211.817 32.6056C211.066 33.9208 209.972 34.9457 208.538 35.6801C207.12 36.3975 205.386 36.7562 203.337 36.7562ZM203.337 32.1444C204.498 32.1444 205.403 32.0334 206.052 31.8113C206.702 31.5722 207.154 31.1452 207.41 30.5303C207.684 29.9154 207.82 29.0443 207.82 27.9169C207.82 26.7725 207.684 25.9014 207.41 25.3036C207.154 24.6887 206.702 24.2702 206.052 24.0482C205.403 23.809 204.498 23.6895 203.337 23.6895C202.175 23.6895 201.278 23.809 200.646 24.0482C200.014 24.2702 199.57 24.6887 199.314 25.3036C199.075 25.9014 198.955 26.7725 198.955 27.9169C198.955 29.0443 199.075 29.9154 199.314 30.5303C199.57 31.1452 200.014 31.5722 200.646 31.8113C201.278 32.0334 202.175 32.1444 203.337 32.1444ZM224.426 36.5H217.278L213.691 19.3339H219.071L220.506 28.0707L220.967 31.9394H221.3L221.992 28.0707L224.298 19.3339H231.549L233.65 28.0707L234.265 31.9394H234.598L235.11 28.0707L236.724 19.3339H242.002L238.082 36.5H230.934L229.14 29.1467L228.013 23.7663H227.68L226.476 29.1467L224.426 36.5Z" fill="white"/>
<defs>
<linearGradient id="paint0_linear_43_378" x1="0" y1="20.4352" x2="10.3169" y2="20.4352" gradientUnits="userSpaceOnUse">
<stop offset="0.1609" stop-color="#FF3F02"/>
<stop offset="0.687809" stop-color="#FF8B3D"/>
<stop offset="1" stop-color="#FF3F02"/>
</linearGradient>
<linearGradient id="paint1_linear_43_378" x1="29.0667" y1="20.4352" x2="39.3835" y2="20.4352" gradientUnits="userSpaceOnUse">
<stop offset="0.1609" stop-color="#FF3F02"/>
<stop offset="0.687809" stop-color="#FF8B3D"/>
<stop offset="1" stop-color="#FF3F02"/>
</linearGradient>
<linearGradient id="paint2_linear_43_378" x1="14.5333" y1="31.5369" x2="24.8502" y2="31.5369" gradientUnits="userSpaceOnUse">
<stop offset="0.1609" stop-color="#FF3F02"/>
<stop offset="0.687809" stop-color="#FF8B3D"/>
<stop offset="1" stop-color="#FF3F02"/>
</linearGradient>
</defs>
</svg>
