<svg width="250" height="55" viewBox="0 0 250 55" fill="none" xmlns="http://www.w3.org/2000/svg">
<path fill-rule="evenodd" clip-rule="evenodd" d="M6.12671 1.25002C6.12671 0.697731 5.679 0.250015 5.12671 0.250015C4.57443 0.250015 4.12671 0.697731 4.12671 1.25002L4.12671 10.9034H1.99999C0.895417 10.9034 -1.37994e-05 11.7988 -1.37994e-05 12.9034V36.3777C-1.37994e-05 37.4822 0.895418 38.3777 1.99999 38.3777H4.12671V39.6204C4.12671 40.1726 4.57442 40.6204 5.12671 40.6204C5.67899 40.6204 6.12671 40.1726 6.12671 39.6204V38.3777H8.31686C9.42143 38.3777 10.3169 37.4822 10.3169 36.3777V12.9034C10.3169 11.7988 9.42142 10.9034 8.31685 10.9034H6.12671L6.12671 1.25002Z" fill="url(#paint0_linear_49_796)"/>
<path fill-rule="evenodd" clip-rule="evenodd" d="M35.1936 1.25002C35.1936 0.697731 34.7459 0.250015 34.1936 0.250015C33.6413 0.250015 33.1936 0.697731 33.1936 1.25002L33.1936 10.9034H31.0669C29.9623 10.9034 29.0669 11.7988 29.0669 12.9034V36.3777C29.0669 37.4822 29.9623 38.3777 31.0669 38.3777H33.1936V39.6204C33.1936 40.1726 33.6413 40.6204 34.1936 40.6204C34.7459 40.6204 35.1936 40.1726 35.1936 39.6204V38.3777H37.3838C38.4883 38.3777 39.3838 37.4822 39.3838 36.3777V12.9034C39.3838 11.7988 38.4883 10.9034 37.3838 10.9034H35.1936L35.1936 1.25002Z" fill="url(#paint1_linear_49_796)"/>
<path fill-rule="evenodd" clip-rule="evenodd" d="M20.6599 9.32409C20.6599 8.7718 20.2122 8.32409 19.6599 8.32409C19.1076 8.32409 18.6599 8.7718 18.6599 9.32409L18.6599 17.6093H16.5332C15.4286 17.6093 14.5332 18.5047 14.5332 19.6093V44.4965C14.5332 45.6011 15.4286 46.4965 16.5332 46.4965H18.6599L18.6599 53.75C18.6599 54.3023 19.1076 54.75 19.6599 54.75C20.2122 54.75 20.6599 54.3023 20.6599 53.75L20.6599 46.4965H22.8501C23.9546 46.4965 24.8501 45.6011 24.8501 44.4965V19.6093C24.8501 18.5047 23.9546 17.6093 22.8501 17.6093H20.6599L20.6599 9.32409Z" fill="url(#paint2_linear_49_796)"/>
<path d="M68.735 36.7562C67.1123 36.7562 65.669 36.3975 64.405 35.6801C63.1581 34.9457 62.1675 33.9208 61.433 32.6056C60.7156 31.2733 60.3569 29.7104 60.3569 27.9169C60.3569 26.1235 60.7156 24.5691 61.433 23.2539C62.1675 21.9216 63.1581 20.8968 64.405 20.1794C65.669 19.4449 67.1123 19.0777 68.735 19.0777C70.1185 19.0777 71.374 19.3339 72.5013 19.8463C73.6286 20.3416 74.5168 21.0505 75.1659 21.9728C75.832 22.8952 76.1651 23.9884 76.1651 25.2523V25.5086H74.9609V25.2523C74.9609 23.6638 74.4143 22.4255 73.3212 21.5373C72.2451 20.6491 70.7164 20.205 68.735 20.205C67.249 20.205 65.9679 20.5039 64.8918 21.1017C63.8157 21.6996 62.9873 22.5707 62.4066 23.7151C61.8258 24.8595 61.5355 26.2601 61.5355 27.9169C61.5355 29.5567 61.8258 30.9573 62.4066 32.1188C62.9873 33.2632 63.8157 34.1343 64.8918 34.7321C65.9679 35.33 67.249 35.6289 68.735 35.6289C70.7164 35.6289 72.2451 35.1848 73.3212 34.2966C74.4143 33.4084 74.9609 32.17 74.9609 30.5815V30.3253H76.1651V30.5815C76.1651 31.8284 75.832 32.9216 75.1659 33.861C74.5168 34.7834 73.6286 35.5008 72.5013 36.0132C71.374 36.5085 70.1185 36.7562 68.735 36.7562ZM80.0169 36.5H78.8639V19.3339H86.909C88.0363 19.3339 89.0355 19.5303 89.9066 19.9232C90.7948 20.2989 91.4866 20.8541 91.9819 21.5885C92.4773 22.323 92.7249 23.2027 92.7249 24.2275C92.7249 25.2182 92.4858 26.0722 92.0076 26.7896C91.5464 27.4899 90.9058 28.0365 90.086 28.4294C89.2832 28.8051 88.3437 29.0016 87.2676 29.0186V29.1211C87.763 29.2407 88.1815 29.4713 88.5231 29.8129C88.8818 30.1545 89.2063 30.5644 89.4967 31.0427L92.9555 36.5H91.6745L88.3694 31.3502C88.079 30.8548 87.7545 30.4534 87.3958 30.146C87.0371 29.8385 86.593 29.6079 86.0635 29.4542C85.551 29.3005 84.8934 29.2236 84.0906 29.2236H80.0169V36.5ZM80.0169 20.3843V28.2244H86.909C88.395 28.2244 89.5394 27.9084 90.3422 27.2764C91.145 26.6444 91.5464 25.6537 91.5464 24.3044C91.5464 22.9721 91.145 21.9899 90.3422 21.3579C89.5394 20.7089 88.395 20.3843 86.909 20.3843H80.0169ZM101.989 30.4534H101.143L93.6109 19.3339H94.9432L100.17 26.9946L101.579 29.0443H101.656L103.039 26.9946L108.215 19.3339H109.573L101.989 30.4534ZM102.143 36.5H101.015V29.4286H102.143V36.5ZM118.748 30.6584H111.83V29.6079H118.697C120.354 29.6079 121.626 29.2407 122.514 28.5062C123.403 27.7547 123.847 26.5846 123.847 24.9961C123.847 23.4247 123.403 22.2632 122.514 21.5117C121.626 20.7601 120.354 20.3843 118.697 20.3843H111.83V19.3339H118.748C119.961 19.3339 121.037 19.5559 121.976 20C122.916 20.4441 123.65 21.0932 124.18 21.9472C124.726 22.7842 125 23.8005 125 24.9961C125 26.1918 124.726 27.2081 124.18 28.045C123.65 28.882 122.916 29.5311 121.976 29.9922C121.037 30.4363 119.961 30.6584 118.748 30.6584ZM112.369 36.5H111.216V19.3339H112.369V36.5ZM134.198 36.5H133.071V19.3339H134.198V36.5ZM141.475 20.3843H125.769V19.3339H141.475V20.3843ZM151.205 36.7562C149.583 36.7562 148.131 36.3975 146.85 35.6801C145.569 34.9457 144.561 33.9208 143.826 32.6056C143.092 31.2733 142.725 29.7104 142.725 27.9169C142.725 26.1235 143.092 24.5691 143.826 23.2539C144.561 21.9216 145.569 20.8968 146.85 20.1794C148.131 19.4449 149.583 19.0777 151.205 19.0777C152.862 19.0777 154.322 19.4449 155.586 20.1794C156.85 20.8968 157.85 21.9216 158.584 23.2539C159.319 24.5691 159.686 26.1235 159.686 27.9169C159.686 29.7104 159.319 31.2733 158.584 32.6056C157.85 33.9208 156.85 34.9457 155.586 35.6801C154.322 36.3975 152.862 36.7562 151.205 36.7562ZM151.205 35.6289C152.725 35.6289 154.024 35.33 155.1 34.7321C156.193 34.1343 157.03 33.2632 157.611 32.1188C158.208 30.9573 158.507 29.5567 158.507 27.9169C158.507 26.2601 158.208 24.8595 157.611 23.7151C157.03 22.5707 156.193 21.6996 155.1 21.1017C154.024 20.5039 152.725 20.205 151.205 20.205C149.702 20.205 148.404 20.5039 147.311 21.1017C146.218 21.6996 145.372 22.5707 144.774 23.7151C144.194 24.8595 143.903 26.2601 143.903 27.9169C143.903 29.5567 144.194 30.9573 144.774 32.1188C145.372 33.2632 146.218 34.1343 147.311 34.7321C148.404 35.33 149.702 35.6289 151.205 35.6289ZM166.277 36.5H161.46V19.3339H166.277V36.5ZM176.423 30.5303H162.767V26.2259H176.423V30.5303ZM176.807 23.6638H162.767V19.3339H176.807V23.6638ZM182.891 36.5H178.074V19.3339H182.891V36.5ZM192.806 36.5H179.406V32.17H192.806V36.5ZM203.336 36.7562C201.355 36.7562 199.647 36.3975 198.212 35.6801C196.794 34.9457 195.71 33.9208 194.958 32.6056C194.207 31.2733 193.831 29.7104 193.831 27.9169C193.831 26.1235 194.207 24.5691 194.958 23.2539C195.71 21.9216 196.794 20.8968 198.212 20.1794C199.647 19.4449 201.355 19.0777 203.336 19.0777C205.386 19.0777 207.12 19.4449 208.537 20.1794C209.972 20.8968 211.065 21.9216 211.817 23.2539C212.569 24.5691 212.944 26.1235 212.944 27.9169C212.944 29.7104 212.569 31.2733 211.817 32.6056C211.065 33.9208 209.972 34.9457 208.537 35.6801C207.12 36.3975 205.386 36.7562 203.336 36.7562ZM203.336 32.1444C204.498 32.1444 205.403 32.0334 206.052 31.8113C206.701 31.5722 207.154 31.1452 207.41 30.5303C207.683 29.9154 207.82 29.0443 207.82 27.9169C207.82 26.7725 207.683 25.9014 207.41 25.3036C207.154 24.6887 206.701 24.2702 206.052 24.0482C205.403 23.809 204.498 23.6895 203.336 23.6895C202.175 23.6895 201.278 23.809 200.646 24.0482C200.014 24.2702 199.57 24.6887 199.314 25.3036C199.075 25.9014 198.955 26.7725 198.955 27.9169C198.955 29.0443 199.075 29.9154 199.314 30.5303C199.57 31.1452 200.014 31.5722 200.646 31.8113C201.278 32.0334 202.175 32.1444 203.336 32.1444ZM224.426 36.5H217.278L213.691 19.3339H219.071L220.506 28.0707L220.967 31.9394H221.3L221.992 28.0707L224.298 19.3339H231.549L233.65 28.0707L234.264 31.9394H234.597L235.11 28.0707L236.724 19.3339H242.002L238.082 36.5H230.934L229.14 29.1467L228.013 23.7663H227.68L226.476 29.1467L224.426 36.5Z" fill="black"/>
<defs>
<linearGradient id="paint0_linear_49_796" x1="0" y1="20.4352" x2="10.3169" y2="20.4352" gradientUnits="userSpaceOnUse">
<stop offset="0.1609" stop-color="#FF3F02"/>
<stop offset="0.687809" stop-color="#FF8B3D"/>
<stop offset="1" stop-color="#FF3F02"/>
</linearGradient>
<linearGradient id="paint1_linear_49_796" x1="29.0669" y1="20.4352" x2="39.3838" y2="20.4352" gradientUnits="userSpaceOnUse">
<stop offset="0.1609" stop-color="#FF3F02"/>
<stop offset="0.687809" stop-color="#FF8B3D"/>
<stop offset="1" stop-color="#FF3F02"/>
</linearGradient>
<linearGradient id="paint2_linear_49_796" x1="14.5332" y1="31.5369" x2="24.8501" y2="31.5369" gradientUnits="userSpaceOnUse">
<stop offset="0.1609" stop-color="#FF3F02"/>
<stop offset="0.687809" stop-color="#FF8B3D"/>
<stop offset="1" stop-color="#FF3F02"/>
</linearGradient>
</defs>
</svg>
