<svg width="1351" height="212" viewBox="0 0 1351 212" fill="none" xmlns="http://www.w3.org/2000/svg">
<path d="M298.465 188.15C278.228 269.31 196.017 318.704 114.837 298.464C33.6909 278.23 -15.7081 196.023 4.53819 114.867C24.7656 33.697 106.977 -15.7009 188.133 4.53357C269.308 24.7681 318.702 106.984 298.465 188.15Z" fill="#F7931A"/>
<path d="M218.303 129.917C221.32 109.758 205.969 98.921 184.979 91.6917L191.788 64.3841L175.164 60.2415L168.535 86.8295C164.165 85.7406 159.676 84.7133 155.216 83.6954L161.892 56.9322L145.277 52.7897L138.464 80.0878C134.847 79.264 131.295 78.4498 127.848 77.5929L127.867 77.5076L104.941 71.7838L100.519 89.5375C100.519 89.5375 112.853 92.3639 112.593 92.5391C119.326 94.2198 120.542 98.6747 120.339 102.207L112.583 133.316C113.047 133.434 113.649 133.605 114.311 133.87C113.757 133.733 113.166 133.581 112.555 133.434L101.683 177.014C100.86 179.059 98.7716 182.127 94.0651 180.962C94.2308 181.204 81.9817 177.946 81.9817 177.946L73.7288 196.974L95.3624 202.366C99.3871 203.374 103.331 204.43 107.214 205.424L100.334 233.044L116.939 237.187L123.753 209.86C128.289 211.091 132.692 212.228 137.001 213.298L130.211 240.496L146.835 244.639L153.715 217.071C182.063 222.435 203.379 220.271 212.352 194.635C219.582 173.993 211.992 162.086 197.077 154.322C207.939 151.818 216.121 144.674 218.303 129.917ZM180.32 183.173C175.183 203.815 140.424 192.656 129.155 189.858L138.284 153.266C149.553 156.078 185.69 161.646 180.32 183.173ZM185.462 129.618C180.775 148.395 151.845 138.855 142.46 136.516L150.737 103.329C160.121 105.667 190.344 110.032 185.462 129.618Z" fill="white"/>
<ellipse cx="326.5" cy="151.5" rx="152.5" ry="151.5" fill="#2E3148"/>
<path fill-rule="evenodd" clip-rule="evenodd" d="M344.326 121.869L297.347 168.478C296.741 167.312 296.194 166.097 295.705 164.836C294.064 160.601 293.244 156.108 293.244 151.363C293.244 146.613 294.064 142.122 295.705 137.887C297.347 133.65 299.622 129.975 302.531 126.855C305.44 123.737 308.937 121.271 313.017 119.455C317.1 117.641 321.579 116.733 326.458 116.733C331.338 116.733 335.842 117.664 339.968 119.527C341.503 120.218 342.956 120.998 344.326 121.869ZM340.181 183.546C336.098 185.362 331.619 186.269 326.74 186.269C321.86 186.269 317.356 185.338 313.228 183.477C311.695 182.783 310.243 182.003 308.874 181.131L355.851 134.526C356.457 135.69 357.004 136.904 357.494 138.166C359.134 142.401 359.955 146.894 359.955 151.641C359.955 156.388 359.134 160.879 357.494 165.117C355.851 169.351 353.576 173.027 350.667 176.145C347.758 179.263 344.263 181.731 340.181 183.546ZM347.289 197.998C353.576 195.298 359.018 191.645 363.616 187.035C368.213 182.429 371.777 177.053 374.31 170.909C376.845 164.766 378.112 158.25 378.112 151.363C378.112 144.473 376.845 137.957 374.31 131.812C372.809 128.168 370.959 124.804 368.763 121.716L399.319 91.4027L387.178 79.3572L356.529 109.763C353.778 107.902 350.79 106.293 347.57 104.935C341.283 102.282 334.34 100.954 326.74 100.954C319.139 100.954 312.197 102.305 305.91 105.004C299.622 107.704 294.179 111.357 289.583 115.965C284.985 120.573 281.419 125.949 278.886 132.092C276.352 138.236 275.086 144.752 275.086 151.641C275.086 158.529 276.352 165.043 278.886 171.188C280.39 174.833 282.239 178.198 284.434 181.288L253.881 211.598L266.022 223.643L296.669 193.239C299.421 195.1 302.408 196.71 305.629 198.067C311.916 200.72 318.858 202.047 326.458 202.047C334.059 202.047 341.002 200.695 347.289 197.998Z" fill="white"/>
<circle cx="501.5" cy="151.5" r="151.5" fill="black"/>
<g clip-path="url(#clip0_2003_91)">
<path d="M576.47 191.798L551.46 218.218C550.917 218.792 550.259 219.249 549.528 219.562C548.797 219.875 548.008 220.036 547.211 220.036H428.653C428.088 220.036 427.534 219.873 427.061 219.567C426.588 219.262 426.216 218.827 425.991 218.316C425.765 217.805 425.696 217.24 425.792 216.691C425.888 216.142 426.145 215.632 426.531 215.225L451.559 188.805C452.101 188.233 452.757 187.776 453.486 187.463C454.214 187.151 455 186.989 455.795 186.987H574.347C574.912 186.987 575.466 187.15 575.939 187.456C576.412 187.761 576.784 188.196 577.01 188.707C577.235 189.218 577.304 189.783 577.208 190.332C577.112 190.881 576.856 191.391 576.47 191.798ZM551.46 138.597C550.917 138.023 550.259 137.566 549.528 137.253C548.797 136.94 548.008 136.779 547.211 136.779H428.653C428.088 136.779 427.534 136.942 427.061 137.248C426.588 137.553 426.216 137.988 425.991 138.499C425.765 139.01 425.696 139.575 425.792 140.124C425.888 140.673 426.145 141.183 426.531 141.591L451.559 168.01C452.101 168.582 452.757 169.039 453.486 169.352C454.214 169.664 455 169.826 455.795 169.828H574.347C574.912 169.828 575.466 169.665 575.939 169.359C576.412 169.054 576.784 168.619 577.01 168.108C577.235 167.597 577.304 167.032 577.208 166.483C577.112 165.934 576.856 165.424 576.47 165.017L551.46 138.597ZM428.653 119.62H547.211C548.008 119.62 548.797 119.459 549.528 119.146C550.259 118.834 550.917 118.376 551.46 117.802L576.47 91.3825C576.856 90.9751 577.112 90.4655 577.208 89.9164C577.304 89.3672 577.235 88.8024 577.01 88.2914C576.784 87.7804 576.412 87.3453 575.939 87.0398C575.466 86.7342 574.912 86.5714 574.347 86.5714H455.795C455 86.5727 454.214 86.7348 453.486 87.0474C452.757 87.3601 452.101 87.8167 451.559 88.3891L426.537 114.809C426.152 115.216 425.895 115.725 425.799 116.273C425.703 116.822 425.771 117.386 425.996 117.897C426.22 118.408 426.592 118.843 427.064 119.149C427.536 119.455 428.088 119.618 428.653 119.62Z" fill="url(#paint0_linear_2003_91)"/>
</g>
<g filter="url(#filter0_d_2003_91)">
<g clip-path="url(#clip1_2003_91)">
<path d="M769.724 85.4196C767.617 77.4424 760.844 69.4651 748.652 60.5848C738.869 53.5107 728.483 49.4468 720.205 49.4468C718.549 49.4468 717.044 49.5973 715.539 49.8983C711.776 50.6509 708.465 53.3601 706.358 57.424C703.799 62.2405 703.197 68.7126 704.853 72.6259C705.455 73.83 706.207 75.3352 707.11 76.6898C699.133 81.5062 694.618 82.8609 694.016 83.0114C714.787 89.935 732.096 104.384 742.933 123.199L743.083 121.392C743.535 116.425 745.04 110.706 747.147 104.836C749.254 105.438 751.361 105.739 753.469 105.739C759.038 105.739 763.854 103.481 766.864 99.4174C769.875 95.3535 771.079 89.935 769.724 85.4196Z" fill="#5E12A0"/>
<path d="M748.045 100.477C761.742 104.24 767.311 93.7043 765.504 86.6301C763.548 79.556 757.226 72.3313 746.088 64.2036C734.95 56.0758 723.661 52.7645 716.437 54.2696C709.212 55.7748 707.105 66.7623 708.911 70.9767C709.664 72.6323 711.319 75.0406 713.577 77.7498C710.717 79.7065 708.008 81.2116 705.75 82.5662C719.598 88.7373 731.639 98.3702 740.67 110.411C741.723 106.347 743.228 102.735 744.583 99.5743C745.637 99.7248 746.841 100.026 748.045 100.477Z" fill="url(#paint1_radial_2003_91)"/>
<path d="M669.626 247.985C716.094 247.985 753.763 210.316 753.763 163.847C753.763 117.379 716.094 79.7102 669.626 79.7102C623.157 79.7102 585.488 117.379 585.488 163.847C585.488 210.316 623.157 247.985 669.626 247.985Z" fill="url(#paint2_radial_2003_91)"/>
<path d="M758.586 79.7012C747.147 67.6601 737.514 64.4993 725.924 61.9405C716.894 59.8333 719.302 54.7159 730.289 55.7695C725.021 53.9633 720.054 53.5117 716.442 54.2643C709.217 55.7695 707.11 66.757 708.916 70.9714C709.669 72.627 711.325 75.0352 713.582 77.7445C709.518 80.4537 706.057 82.4104 703.197 83.9156C704.551 84.5176 706.207 85.2702 708.164 86.3238C713.281 89.033 718.85 93.5485 718.85 93.5485C710.422 86.3238 712.228 83.0125 723.817 74.8847C727.43 72.326 734.052 72.627 740.223 75.7878C746.394 78.9486 753.619 86.9258 753.619 86.9258L746.695 100.171C747.147 100.322 747.598 100.472 748.05 100.623C752.415 101.827 755.877 101.526 758.586 100.472C761.747 98.5154 770.025 91.8928 758.586 79.7012Z" fill="#A98698" fill-opacity="0.6"/>
<path d="M725.769 69.1709C728.779 70.375 732.692 72.4822 737.509 75.643C743.228 79.4059 748.195 83.6203 751.356 86.9316C746.088 93.8552 742.626 103.338 740.519 109.96C741.573 111.465 742.777 112.97 743.83 114.476C744.884 110.713 746.69 105.144 749.098 99.5747C749.701 99.7253 750.453 99.7252 751.206 99.7252C753.012 99.7252 755.119 99.4242 756.775 98.0696C757.979 97.1665 759.333 95.5109 759.183 92.5006C759.183 89.6408 756.925 86.0285 752.259 81.6636C748.948 78.5028 744.433 75.041 739.917 71.8802C726.973 63.3009 717.942 60.8927 713.878 64.9565C711.169 67.6658 711.47 70.9771 712.373 73.3853C707.557 76.5461 703.493 78.8038 700.784 80.309C702.59 80.911 704.245 81.6636 706.052 82.4162C710.868 79.8574 717.792 75.4925 725.769 69.1709ZM754.216 90.6944C754.667 91.447 754.818 92.1996 754.818 92.6511C754.818 94.0057 754.366 94.4573 754.065 94.7583C753.463 95.2098 752.259 95.5109 751.206 95.5109C752.109 93.7047 753.162 92.1996 754.216 90.6944ZM717.039 68.2679C717.491 67.8163 718.695 67.5153 720.651 67.8163C719.146 69.0204 717.641 70.074 716.136 71.1276C715.985 70.074 716.136 69.0204 717.039 68.2679Z" fill="#5E12A0"/>
<path d="M669.626 74.7319C620.408 74.7319 580.522 114.618 580.522 163.836C580.522 213.054 620.408 252.94 669.626 252.94C718.844 252.94 758.73 213.054 758.73 163.836C758.73 114.618 718.694 74.7319 669.626 74.7319ZM669.626 247.973C623.117 247.973 585.489 210.345 585.489 163.836C585.489 117.327 623.117 79.6989 669.626 79.6989C716.135 79.6989 753.763 117.327 753.763 163.836C753.763 210.345 715.984 247.973 669.626 247.973Z" fill="#5E12A0"/>
<path d="M669.626 247.985C716.094 247.985 753.763 210.316 753.763 163.847C753.763 117.379 716.094 79.7102 669.626 79.7102C623.157 79.7102 585.488 117.379 585.488 163.847C585.488 210.316 623.157 247.985 669.626 247.985Z" fill="url(#paint3_linear_2003_91)"/>
<path d="M669.025 237.752C623.118 230.377 591.962 187.179 599.488 141.273C602.799 120.953 613.034 103.644 627.483 91.1515C606.411 103.343 590.758 124.566 586.544 150.454C579.168 196.361 610.325 239.558 656.081 246.933C681.668 251.148 706.353 243.17 724.565 227.517C708.46 236.849 688.893 240.913 669.025 237.752Z" fill="#A98698" fill-opacity="0.6"/>
<path d="M683.028 80.921C661.805 77.4592 641.185 82.2756 624.327 92.9621C624.026 93.2631 623.725 93.5641 623.725 93.5641C630.197 89.6508 639.68 86.189 639.68 86.189C615.297 100.337 607.771 116.442 607.771 116.442C617.253 98.0796 645.098 85.1354 666.923 84.2323C688.747 83.3292 703.046 89.8013 720.506 103.799C737.965 117.947 748.501 146.846 747.448 169.724C746.545 192.602 734.504 211.115 734.504 211.115C742.782 200.429 747.749 192.602 750.91 184.625C751.512 182.217 752.114 179.809 752.415 177.25C759.94 131.494 728.935 88.2962 683.028 80.921Z" fill="url(#paint4_linear_2003_91)"/>
<path d="M749.557 163.093C749.557 207.193 713.735 243.016 669.634 243.016C625.534 243.016 589.561 207.193 589.561 163.093H749.557Z" fill="url(#paint5_linear_2003_91)"/>
<path d="M743.234 163.093C743.234 206.14 709.218 241.36 666.472 243.016H669.632C713.733 243.016 749.555 207.193 749.555 163.093H743.234Z" fill="url(#paint6_linear_2003_91)"/>
<path d="M600.849 163.093H589.561C589.561 207.193 625.383 243.016 669.484 243.016C671.44 243.016 673.247 243.016 675.053 242.865C633.661 239.855 600.849 205.237 600.849 163.093Z" fill="url(#paint7_linear_2003_91)"/>
<path d="M749.407 163.854C749.407 154.672 733.453 149.404 712.23 147.598C696.878 146.394 681.375 147.899 663.614 153.318C648.262 157.833 634.415 157.081 624.33 155.877C601.904 153.318 589.562 153.017 589.562 163.854C589.562 179.507 621.471 199.074 669.334 192.301C693.567 188.839 706.059 181.765 720.358 176.948C735.861 171.831 749.407 171.982 749.407 163.854Z" fill="url(#paint8_linear_2003_91)"/>
<path d="M717.944 135.995C721.104 135.995 723.664 133.434 723.664 130.275C723.664 127.116 721.104 124.556 717.944 124.556C714.785 124.556 712.225 127.116 712.225 130.275C712.225 133.434 714.785 135.995 717.944 135.995Z" fill="white"/>
<path d="M695.815 125.905C703.297 125.905 709.361 119.841 709.361 112.359C709.361 104.877 703.297 98.8124 695.815 98.8124C688.333 98.8124 682.269 104.877 682.269 112.359C682.269 119.841 688.333 125.905 695.815 125.905Z" fill="white"/>
<path d="M738.421 101.536H738.12C737.217 101.385 736.615 100.482 736.765 99.4288C738.12 92.5052 743.839 85.8825 744.14 85.5815C744.742 84.8289 745.946 84.8289 746.549 85.431C747.301 86.0331 747.301 87.2372 746.699 87.8392C746.549 87.9897 741.281 94.1608 740.076 100.181C739.926 101.084 739.173 101.536 738.421 101.536Z" fill="url(#paint9_linear_2003_91)"/>
<path d="M720.197 49.4516C728.626 49.4516 739.012 53.5154 748.645 60.5896C760.836 69.4699 767.609 77.2966 769.716 85.4244C770.921 90.0903 769.867 95.3583 766.857 99.2717C763.696 103.336 759.03 105.593 753.461 105.593C751.504 105.593 749.397 105.292 747.139 104.69C745.785 108.152 744.731 111.614 743.979 114.925C753.16 128.923 758.578 145.78 758.578 163.842C758.578 213.06 718.692 252.946 669.474 252.946C620.256 252.946 580.52 213.06 580.52 163.842C580.52 114.624 620.407 74.7379 669.625 74.7379C680.462 74.7379 690.847 76.6946 700.48 80.3069C702.286 79.4038 704.544 78.1997 707.103 76.6946C706.2 75.3399 705.297 73.9853 704.845 72.6307C703.189 68.5668 703.791 62.2452 706.35 57.4288C708.457 53.5154 711.618 50.8062 715.531 49.9031C716.886 49.6021 718.542 49.4516 720.197 49.4516ZM720.197 46.8928C718.391 46.8928 716.585 47.0433 714.929 47.4949C710.414 48.5485 706.501 51.5588 703.942 56.3752C701.082 61.9442 700.33 69.1689 702.286 73.8348C702.587 74.4369 702.888 75.1894 703.34 75.942C702.286 76.5441 701.233 77.1461 700.179 77.5977C690.245 74.1358 680.01 72.3297 669.474 72.3297C657.132 72.3297 645.091 74.7379 633.802 79.5543C622.815 84.2203 613.031 90.8429 604.603 99.2717C596.174 107.7 589.551 117.484 584.885 128.471C580.069 139.76 577.661 151.801 577.661 164.143C577.661 176.485 580.069 188.526 584.885 199.815C589.551 210.802 596.174 220.586 604.603 229.015C613.031 237.443 622.815 244.066 633.802 248.732C645.091 253.548 657.132 255.957 669.474 255.957C681.816 255.957 693.857 253.548 705.146 248.732C716.134 244.066 725.917 237.443 734.346 229.015C742.774 220.586 749.397 210.802 754.063 199.815C758.879 188.526 761.288 176.485 761.288 164.143C761.288 146.533 756.321 129.525 746.838 114.775C747.29 112.517 748.042 110.259 748.795 108.001C750.3 108.302 751.956 108.453 753.461 108.453C759.783 108.453 765.352 105.894 768.964 101.078C772.426 96.5624 773.78 90.2408 772.275 84.9728C769.867 76.243 762.943 67.9648 750.15 58.7834C740.065 51.1072 729.078 46.8928 720.197 46.8928Z" fill="white"/>
<path d="M646.146 225.108C649.97 225.108 653.069 222.009 653.069 218.184C653.069 214.361 649.97 211.261 646.146 211.261C642.323 211.261 639.222 214.361 639.222 218.184C639.222 222.009 642.323 225.108 646.146 225.108Z" fill="white" fill-opacity="0.2"/>
<path d="M642.233 222.531C639.524 219.822 639.524 215.457 642.233 212.748C642.685 212.296 643.136 211.995 643.738 211.694C642.835 211.995 642.083 212.597 641.33 213.199C638.621 215.909 638.621 220.274 641.33 222.983C643.588 225.24 647.05 225.692 649.759 224.036C647.2 225.09 644.19 224.638 642.233 222.531Z" fill="url(#paint10_linear_2003_91)"/>
<path d="M708.014 208.098C711.838 208.098 714.937 204.998 714.937 201.174C714.937 197.351 711.838 194.25 708.014 194.25C704.191 194.25 701.09 197.351 701.09 201.174C701.09 204.998 704.191 208.098 708.014 208.098Z" fill="white" fill-opacity="0.2"/>
<path d="M703.948 205.523C701.239 202.814 701.239 198.449 703.948 195.74C704.4 195.288 704.851 194.987 705.453 194.686C704.55 194.987 703.798 195.589 703.045 196.192C700.336 198.901 700.336 203.266 703.045 205.975C705.303 208.233 708.765 208.684 711.474 207.029C708.915 208.082 706.056 207.631 703.948 205.523Z" fill="url(#paint11_linear_2003_91)"/>
<path d="M710.423 199.05C711.254 199.05 711.928 198.376 711.928 197.545C711.928 196.714 711.254 196.04 710.423 196.04C709.592 196.04 708.918 196.714 708.918 197.545C708.918 198.376 709.592 199.05 710.423 199.05Z" fill="white" fill-opacity="0.3"/>
</g>
</g>
<circle cx="849.5" cy="151.5" r="151.5" fill="#1C1C1C"/>
<path fill-rule="evenodd" clip-rule="evenodd" d="M846.158 66.6393L794.586 148.713C793.974 149.215 793.556 149.898 793.373 150.644L791.786 153.17L849.5 186.569L907.214 153.17L852.842 66.6394C852.682 66.2489 852.457 65.8926 852.179 65.5845L849.5 61.3214L846.821 65.5846C846.543 65.8926 846.318 66.2489 846.158 66.6393ZM845.893 80.6215L806.848 142.759L845.893 124.172V80.6215ZM845.893 132.162L804.191 152.014L845.893 176.147V132.162ZM853.107 176.147V132.246L894.113 152.416L853.107 176.147ZM853.107 124.206V80.6215L892.746 143.704L853.107 124.206ZM849.079 196.346L791.786 163.19L849.5 241.678L907.214 163.19L849.921 196.346C849.783 196.33 849.642 196.322 849.5 196.322C849.358 196.322 849.217 196.33 849.079 196.346ZM845.893 202.837L818.043 186.72L845.893 224.595V202.837ZM853.107 224.595L880.957 186.72L853.107 202.837V224.595Z" fill="white"/>
<ellipse cx="1024.5" cy="151.5" rx="152.5" ry="151.5" fill="#1C1C1C"/>
<path fill-rule="evenodd" clip-rule="evenodd" d="M1035.82 54.1072L1040.33 54.1072L980.613 134.728L1039.02 204.525H1034.35L973.667 134.92L1035.82 54.1072Z" fill="#CAB3F5"/>
<path fill-rule="evenodd" clip-rule="evenodd" d="M1003.14 54.1072H1008.16L947.935 134.728L1006.85 204.525L1001.67 204.525L940.988 134.92L1003.14 54.1072Z" fill="#C8B2F5"/>
<path d="M1058.47 55.37L1057.45 58.7403V156.53L1058.47 157.52L1105.32 130.689L1058.47 55.37Z" fill="#B8FBF6"/>
<path d="M1058.46 55.37L1011.61 130.689L1058.46 157.52V110.056V55.37Z" fill="#EECBC0"/>
<path d="M1058.47 166.114L1057.89 166.796V201.63L1058.47 203.263L1105.35 139.296L1058.47 166.114Z" fill="#C8B2F5"/>
<path d="M1058.46 203.263V166.114L1011.61 139.296L1058.46 203.263Z" fill="#EECBC0"/>
<path d="M1058.45 157.519L1105.3 130.687L1058.45 110.054V157.519Z" fill="#CAB3F5"/>
<path d="M1011.61 130.687L1058.46 157.519V110.054L1011.61 130.687Z" fill="#87A9F0"/>
<circle cx="1199.5" cy="151.5" r="151.5" fill="#8A06D4"/>
<path d="M1285.49 212.375L1241.55 136.132L1220.94 100.39L1197.61 59.9137C1197.22 59.245 1196.66 58.6897 1196 58.3036C1195.33 57.9175 1194.57 57.7142 1193.8 57.7142C1193.02 57.7142 1192.27 57.9175 1191.6 58.3036C1190.93 58.6897 1190.37 59.245 1189.99 59.9137L1145.94 136.075L1127.95 167.196C1127.56 167.865 1127.36 168.624 1127.36 169.397C1127.36 170.169 1127.56 170.928 1127.95 171.597C1128.33 172.267 1128.89 172.822 1129.56 173.209C1130.22 173.595 1130.98 173.799 1131.76 173.799L1165.75 173.821C1166.53 173.821 1167.28 173.618 1167.95 173.233C1168.62 172.847 1169.18 172.293 1169.57 171.625L1187.23 141.064L1189.94 136.391C1190.04 136.21 1190.16 136.037 1190.29 135.873C1190.73 135.308 1191.31 134.861 1191.97 134.57C1192.63 134.28 1193.35 134.155 1194.06 134.207C1194.78 134.258 1195.47 134.485 1196.08 134.867C1196.69 135.249 1197.2 135.775 1197.56 136.398L1215.89 168.2L1219.29 174.076C1219.47 174.401 1219.62 174.748 1219.72 175.108C1219.9 175.762 1219.92 176.448 1219.79 177.114C1219.66 177.779 1219.38 178.406 1218.97 178.945C1218.56 179.483 1218.03 179.919 1217.42 180.219C1216.81 180.519 1216.14 180.674 1215.46 180.672L1175.47 180.647C1174.7 180.647 1173.94 180.85 1173.27 181.235C1172.6 181.62 1172.05 182.174 1171.66 182.842L1154.64 212.275C1154.25 212.944 1154.05 213.702 1154.05 214.474C1154.04 215.246 1154.25 216.005 1154.63 216.674C1155.02 217.343 1155.57 217.898 1156.24 218.285C1156.91 218.671 1157.67 218.875 1158.44 218.875L1193.69 218.9L1237.63 218.928L1281.67 218.956C1282.44 218.957 1283.2 218.755 1283.87 218.37C1284.54 217.986 1285.09 217.433 1285.48 216.766C1285.86 216.099 1286.07 215.343 1286.07 214.572C1286.07 213.801 1285.87 213.044 1285.49 212.375Z" fill="white"/>
<defs>
<filter id="filter0_d_2003_91" x="460" y="0" width="367" height="351" filterUnits="userSpaceOnUse" color-interpolation-filters="sRGB">
<feFlood flood-opacity="0" result="BackgroundImageFix"/>
<feColorMatrix in="SourceAlpha" type="matrix" values="0 0 0 0 0 0 0 0 0 0 0 0 0 0 0 0 0 0 127 0" result="hardAlpha"/>
<feOffset dx="-48" dy="32"/>
<feGaussianBlur stdDeviation="8"/>
<feColorMatrix type="matrix" values="0 0 0 0 0.129412 0 0 0 0 0.105882 0 0 0 0 0.305882 0 0 0 0.15 0"/>
<feBlend mode="normal" in2="BackgroundImageFix" result="effect1_dropShadow_2003_91"/>
<feBlend mode="normal" in="SourceGraphic" in2="effect1_dropShadow_2003_91" result="shape"/>
</filter>
<linearGradient id="paint0_linear_2003_91" x1="438.538" y1="223.217" x2="560.767" y2="83.3311" gradientUnits="userSpaceOnUse">
<stop offset="0.08" stop-color="#9945FF"/>
<stop offset="0.3" stop-color="#8752F3"/>
<stop offset="0.5" stop-color="#5497D5"/>
<stop offset="0.6" stop-color="#43B4CA"/>
<stop offset="0.72" stop-color="#28E0B9"/>
<stop offset="0.97" stop-color="#19FB9B"/>
</linearGradient>
<radialGradient id="paint1_radial_2003_91" cx="0" cy="0" r="1" gradientUnits="userSpaceOnUse" gradientTransform="translate(762.759 77.1476) scale(67.2713 67.2713)">
<stop stop-color="#FFEAFF" stop-opacity="0.6"/>
<stop offset="0.68" stop-color="#A087C9"/>
<stop offset="1" stop-color="#10002F"/>
</radialGradient>
<radialGradient id="paint2_radial_2003_91" cx="0" cy="0" r="1" gradientUnits="userSpaceOnUse" gradientTransform="translate(725.332 105.842) scale(164.588 164.588)">
<stop stop-color="#FFEAFF" stop-opacity="0.6"/>
<stop offset="0.68" stop-color="#A087C9"/>
<stop offset="1" stop-color="#10002F"/>
</radialGradient>
<linearGradient id="paint3_linear_2003_91" x1="656.129" y1="246.791" x2="683.041" y2="80.7638" gradientUnits="userSpaceOnUse">
<stop stop-color="#81FFFF" stop-opacity="0.6"/>
<stop offset="0.62" stop-color="white" stop-opacity="0"/>
<stop offset="1" stop-color="white" stop-opacity="0"/>
</linearGradient>
<linearGradient id="paint4_linear_2003_91" x1="728.927" y1="106.714" x2="659.354" y2="170.55" gradientUnits="userSpaceOnUse">
<stop stop-color="white" stop-opacity="0.6"/>
<stop offset="0.29" stop-color="white" stop-opacity="0.6"/>
<stop offset="0.78" stop-color="white" stop-opacity="0"/>
<stop offset="1" stop-color="white" stop-opacity="0"/>
</linearGradient>
<linearGradient id="paint5_linear_2003_91" x1="589.629" y1="203.008" x2="749.518" y2="203.008" gradientUnits="userSpaceOnUse">
<stop stop-color="#0002E9"/>
<stop offset="1" stop-color="#FF00C7"/>
</linearGradient>
<linearGradient id="paint6_linear_2003_91" x1="757.085" y1="170.106" x2="670.058" y2="252.352" gradientUnits="userSpaceOnUse">
<stop stop-color="white" stop-opacity="0.6"/>
<stop offset="0.29" stop-color="white" stop-opacity="0.6"/>
<stop offset="0.78" stop-color="white" stop-opacity="0"/>
<stop offset="1" stop-color="white" stop-opacity="0"/>
</linearGradient>
<linearGradient id="paint7_linear_2003_91" x1="589.629" y1="203.008" x2="675.169" y2="203.008" gradientUnits="userSpaceOnUse">
<stop stop-color="#000292" stop-opacity="0.7"/>
<stop offset="1" stop-color="#7D00C7" stop-opacity="0.7"/>
</linearGradient>
<linearGradient id="paint8_linear_2003_91" x1="589.737" y1="170.493" x2="749.412" y2="170.493" gradientUnits="userSpaceOnUse">
<stop stop-color="#000292"/>
<stop offset="1" stop-color="#BE00C7"/>
</linearGradient>
<linearGradient id="paint9_linear_2003_91" x1="746.792" y1="84.8485" x2="735.317" y2="103.497" gradientUnits="userSpaceOnUse">
<stop stop-color="white" stop-opacity="0.6"/>
<stop offset="0.29" stop-color="white" stop-opacity="0.6"/>
<stop offset="0.78" stop-color="white" stop-opacity="0"/>
<stop offset="1" stop-color="white" stop-opacity="0"/>
</linearGradient>
<linearGradient id="paint10_linear_2003_91" x1="639.229" y1="218.342" x2="649.629" y2="218.342" gradientUnits="userSpaceOnUse">
<stop stop-color="white" stop-opacity="0.6"/>
<stop offset="0.29" stop-color="white" stop-opacity="0.6"/>
<stop offset="0.78" stop-color="white" stop-opacity="0"/>
<stop offset="1" stop-color="white" stop-opacity="0"/>
</linearGradient>
<linearGradient id="paint11_linear_2003_91" x1="701.002" y1="201.33" x2="711.401" y2="201.33" gradientUnits="userSpaceOnUse">
<stop stop-color="white" stop-opacity="0.6"/>
<stop offset="0.29" stop-color="white" stop-opacity="0.6"/>
<stop offset="0.78" stop-color="white" stop-opacity="0"/>
<stop offset="1" stop-color="white" stop-opacity="0"/>
</linearGradient>
<clipPath id="clip0_2003_91">
<rect width="151.5" height="133.464" fill="white" transform="translate(425.75 86.5714)"/>
</clipPath>
<clipPath id="clip1_2003_91">
<rect width="209.214" height="209.214" fill="white" transform="translate(570.893 46.8928)"/>
</clipPath>
</defs>
</svg>
