<svg width="1885" height="668" viewBox="0 0 1885 668" fill="none" xmlns="http://www.w3.org/2000/svg">
<path fill-rule="evenodd" clip-rule="evenodd" d="M16.173 154.478C16.173 153.926 15.7252 153.478 15.173 153.478C14.6207 153.478 14.173 153.926 14.173 154.478L14.173 173.61H2.75157C1.647 173.61 0.751572 174.505 0.751572 175.61V312.535C0.751572 313.639 1.647 314.535 2.75157 314.535H14.173L14.173 337.022C14.173 337.574 14.6207 338.022 15.173 338.022C15.7252 338.022 16.173 337.574 16.173 337.022L16.173 314.535H32.305C33.4096 314.535 34.305 313.639 34.305 312.535V175.61C34.305 174.505 33.4096 173.61 32.305 173.61H16.173L16.173 154.478Z" fill="white" fill-opacity="0.19"/>
<path fill-rule="evenodd" clip-rule="evenodd" d="M106.767 278.626C106.767 278.073 106.32 277.626 105.767 277.626C105.215 277.626 104.767 278.073 104.767 278.626L104.767 327.956H93.3459C92.2413 327.956 91.3459 328.851 91.3459 329.956V399.774C91.3459 400.878 92.2413 401.774 93.3459 401.774H104.767L104.767 427.616C104.767 428.169 105.215 428.616 105.767 428.616C106.32 428.616 106.767 428.169 106.767 427.616L106.767 401.774H122.899C124.004 401.774 124.899 400.878 124.899 399.774V329.956C124.899 328.851 124.004 327.956 122.899 327.956H106.767L106.767 278.626Z" fill="#FF8B3D" fill-opacity="0.16"/>
<path fill-rule="evenodd" clip-rule="evenodd" d="M200.717 16.9088C200.717 16.3565 200.269 15.9088 199.717 15.9088C199.165 15.9088 198.717 16.3565 198.717 16.9088L198.717 69.5943H183.94C182.836 69.5943 181.94 70.4898 181.94 71.5943V278.981C181.94 280.086 182.836 280.981 183.94 280.981H198.717L198.717 323.601C198.717 324.153 199.165 324.601 199.717 324.601C200.269 324.601 200.717 324.153 200.717 323.601L200.717 280.981H213.494C214.598 280.981 215.494 280.086 215.494 278.981V71.5943C215.494 70.4898 214.598 69.5943 213.494 69.5943H200.717L200.717 16.9088Z" fill="white" fill-opacity="0.19"/>
<path fill-rule="evenodd" clip-rule="evenodd" d="M287.956 127.635C287.956 127.083 287.508 126.635 286.956 126.635C286.404 126.635 285.956 127.083 285.956 127.635L285.956 153.478H274.535C273.43 153.478 272.535 154.373 272.535 155.478V252.138C272.535 253.243 273.43 254.138 274.535 254.138H285.956L285.956 276.626C285.956 277.178 286.404 277.626 286.956 277.626C287.508 277.626 287.956 277.178 287.956 276.626L287.956 254.138H304.088C305.193 254.138 306.088 253.243 306.088 252.138V155.478C306.088 154.373 305.193 153.478 304.088 153.478H287.956L287.956 127.635Z" fill="white" fill-opacity="0.19"/>
<path fill-rule="evenodd" clip-rule="evenodd" d="M365.129 217.23C364.024 217.23 363.129 218.125 363.129 219.23V550.764C363.129 551.869 364.024 552.764 365.129 552.764H376.55L376.55 581.962C376.55 582.515 376.998 582.962 377.55 582.962C378.103 582.962 378.55 582.515 378.55 581.962L378.55 552.764H394.682C395.787 552.764 396.682 551.869 396.682 550.764V219.23C396.682 218.125 395.787 217.23 394.682 217.23H365.129Z" fill="#FF8B3D" fill-opacity="0.16"/>
<path fill-rule="evenodd" clip-rule="evenodd" d="M469.145 -20C469.145 -20.5523 468.697 -21 468.145 -21C467.592 -21 467.145 -20.5523 467.145 -20L467.145 69.5943H455.723C454.619 69.5943 453.723 70.4898 453.723 71.5943V443.393C453.723 444.498 454.619 445.393 455.723 445.393H467.145L467.145 461.17C467.145 461.722 467.592 462.17 468.145 462.17C468.697 462.17 469.145 461.722 469.145 461.17L469.145 445.393H485.277C486.381 445.393 487.277 444.498 487.277 443.393V71.5943C487.277 70.4898 486.381 69.5943 485.277 69.5943H469.145L469.145 -20Z" fill="#FF8B3D" fill-opacity="0.16"/>
<path fill-rule="evenodd" clip-rule="evenodd" d="M559.739 188.031C559.739 187.479 559.291 187.031 558.739 187.031C558.187 187.031 557.739 187.479 557.739 188.031L557.739 250.783H546.318C545.213 250.783 544.318 251.678 544.318 252.783V413.195C544.318 414.3 545.213 415.195 546.318 415.195H557.739L557.739 427.616C557.739 428.169 558.187 428.616 558.739 428.616C559.291 428.616 559.739 428.169 559.739 427.616L559.739 415.195H575.871C576.976 415.195 577.871 414.3 577.871 413.195V252.783C577.871 251.678 576.976 250.783 575.871 250.783H559.739L559.739 188.031Z" fill="white" fill-opacity="0.19"/>
<path fill-rule="evenodd" clip-rule="evenodd" d="M650.333 339.022C650.333 338.47 649.886 338.022 649.333 338.022C648.781 338.022 648.333 338.47 648.333 339.022L648.333 368.22H636.912C635.807 368.22 634.912 369.116 634.912 370.22V460.17C634.912 461.274 635.807 462.17 636.912 462.17H648.333L648.333 488.013C648.333 488.565 648.781 489.013 649.333 489.013C649.886 489.013 650.333 488.565 650.333 488.013L650.333 462.17H666.465C667.57 462.17 668.465 461.274 668.465 460.17V370.22C668.465 369.116 667.57 368.22 666.465 368.22H650.333L650.333 339.022Z" fill="white" fill-opacity="0.19"/>
<path fill-rule="evenodd" clip-rule="evenodd" d="M727.506 247.428C726.402 247.428 725.506 248.323 725.506 249.428V376.286C725.506 377.391 726.402 378.286 727.506 378.286H738.928L738.928 414.195C738.928 414.747 739.375 415.195 739.928 415.195C740.48 415.195 740.928 414.747 740.928 414.195L740.928 378.286H757.06C758.164 378.286 759.06 377.391 759.06 376.286V249.428C759.06 248.323 758.164 247.428 757.06 247.428H727.506Z" fill="#FF8B3D" fill-opacity="0.16"/>
<path fill-rule="evenodd" clip-rule="evenodd" d="M846.421 486C846.421 485.448 845.974 485 845.421 485C844.869 485 844.421 485.448 844.421 486L844.421 535.33H833C831.895 535.33 831 536.226 831 537.33V633.991C831 635.095 831.895 635.991 833 635.991H862.553C863.658 635.991 864.553 635.095 864.553 633.991V537.33C864.553 536.226 863.658 535.33 862.553 535.33H846.421L846.421 486Z" fill="white" fill-opacity="0.19"/>
<path fill-rule="evenodd" clip-rule="evenodd" d="M922.116 188.031C922.116 187.479 921.669 187.031 921.116 187.031C920.564 187.031 920.116 187.479 920.116 188.031L920.116 230.651H908.695C907.59 230.651 906.695 231.546 906.695 232.651V366.22C906.695 367.325 907.59 368.22 908.695 368.22H938.248C939.353 368.22 940.248 367.325 940.248 366.22V232.651C940.248 231.546 939.353 230.651 938.248 230.651H922.116L922.116 188.031Z" fill="white" fill-opacity="0.19"/>
<path fill-rule="evenodd" clip-rule="evenodd" d="M1874.94 56.8162C1874.94 56.2639 1875.39 55.8162 1875.94 55.8162C1876.5 55.8162 1876.94 56.2639 1876.94 56.8162L1876.94 113.731H1893.04C1894.15 113.731 1895.04 114.626 1895.04 115.731V339.769C1895.04 340.873 1894.15 341.769 1893.04 341.769H1876.94L1876.94 387.824C1876.94 388.377 1876.5 388.824 1875.94 388.824C1875.39 388.824 1874.94 388.377 1874.94 387.824L1874.94 341.769H1860.85C1859.74 341.769 1858.85 340.873 1858.85 339.769V115.731C1858.85 114.626 1859.74 113.731 1860.85 113.731H1874.94L1874.94 56.8162Z" fill="white" fill-opacity="0.19"/>
<path fill-rule="evenodd" clip-rule="evenodd" d="M1780.83 176.265C1780.83 175.713 1781.28 175.265 1781.83 175.265C1782.38 175.265 1782.83 175.713 1782.83 176.265L1782.83 204.222H1795.31C1796.42 204.222 1797.31 205.117 1797.31 206.222V310.812C1797.31 311.916 1796.42 312.812 1795.31 312.812H1782.83L1782.83 337.149C1782.83 337.702 1782.38 338.149 1781.83 338.149C1781.28 338.149 1780.83 337.702 1780.83 337.149L1780.83 312.812H1763.11C1762.01 312.812 1761.11 311.916 1761.11 310.812V206.222C1761.11 205.117 1762.01 204.222 1763.11 204.222H1780.83L1780.83 176.265Z" fill="white" fill-opacity="0.19"/>
<path fill-rule="evenodd" clip-rule="evenodd" d="M1697.58 272.995C1698.68 272.995 1699.58 273.891 1699.58 274.995V632.961C1699.58 634.065 1698.68 634.961 1697.58 634.961H1685.1L1685.1 666.538C1685.1 667.09 1684.65 667.538 1684.1 667.538C1683.55 667.538 1683.1 667.09 1683.1 666.538L1683.1 634.961H1665.38C1664.28 634.961 1663.38 634.065 1663.38 632.961V274.995C1663.38 273.891 1664.28 272.995 1665.38 272.995H1697.58Z" fill="#FF8B3D" fill-opacity="0.16"/>
<path fill-rule="evenodd" clip-rule="evenodd" d="M1585.37 17C1585.37 16.4477 1585.82 16 1586.37 16C1586.92 16 1587.37 16.4477 1587.37 17L1587.37 113.731H1599.85C1600.95 113.731 1601.85 114.626 1601.85 115.731V517.132C1601.85 518.236 1600.95 519.132 1599.85 519.132H1587.37L1587.37 536.23C1587.37 536.782 1586.92 537.23 1586.37 537.23C1585.82 537.23 1585.37 536.782 1585.37 536.23V519.132H1567.65C1566.55 519.132 1565.65 518.236 1565.65 517.132V115.731C1565.65 114.626 1566.55 113.731 1567.65 113.731H1585.37L1585.37 17Z" fill="#FF8B3D" fill-opacity="0.16"/>
<path fill-rule="evenodd" clip-rule="evenodd" d="M1487.64 241.419C1487.64 240.866 1488.09 240.419 1488.64 240.419C1489.19 240.419 1489.64 240.866 1489.64 241.419L1489.64 309.192H1502.12C1503.22 309.192 1504.12 310.087 1504.12 311.192V484.555C1504.12 485.66 1503.22 486.555 1502.12 486.555H1489.64L1489.64 500.034C1489.64 500.586 1489.19 501.034 1488.64 501.034C1488.09 501.034 1487.64 500.586 1487.64 500.034V486.555H1469.92C1468.82 486.555 1467.92 485.66 1467.92 484.555V311.192C1467.92 310.087 1468.82 309.192 1469.92 309.192H1487.64L1487.64 241.419Z" fill="white" fill-opacity="0.19"/>
<path fill-rule="evenodd" clip-rule="evenodd" d="M1389.91 404.303C1389.91 403.751 1390.36 403.303 1390.91 403.303C1391.46 403.303 1391.91 403.751 1391.91 404.303L1391.91 435.88H1404.39C1405.49 435.88 1406.39 436.775 1406.39 437.88V535.23C1406.39 536.335 1405.49 537.23 1404.39 537.23H1391.91L1391.91 565.187C1391.91 565.74 1391.46 566.187 1390.91 566.187C1390.36 566.187 1389.91 565.74 1389.91 565.187L1389.91 537.23H1372.19C1371.09 537.23 1370.19 536.335 1370.19 535.23V437.88C1370.19 436.775 1371.09 435.88 1372.19 435.88H1389.91L1389.91 404.303Z" fill="white" fill-opacity="0.19"/>
<path fill-rule="evenodd" clip-rule="evenodd" d="M1306.66 305.572C1307.76 305.572 1308.66 306.468 1308.66 307.572V444.739C1308.66 445.843 1307.76 446.739 1306.66 446.739H1294.18L1294.18 485.555C1294.18 486.107 1293.73 486.555 1293.18 486.555C1292.63 486.555 1292.18 486.107 1292.18 485.555L1292.18 446.739H1274.46C1273.36 446.739 1272.46 445.843 1272.46 444.739V307.572C1272.46 306.468 1273.36 305.572 1274.46 305.572H1306.66Z" fill="#FF8B3D" fill-opacity="0.16"/>
<path fill-rule="evenodd" clip-rule="evenodd" d="M1096.72 241.419C1096.72 240.866 1097.17 240.419 1097.72 240.419C1098.27 240.419 1098.72 240.866 1098.72 241.419L1098.72 287.474H1111.2C1112.3 287.474 1113.2 288.369 1113.2 289.474V433.88C1113.2 434.984 1112.3 435.88 1111.2 435.88H1079C1077.9 435.88 1077 434.984 1077 433.88V289.474C1077 288.369 1077.9 287.474 1079 287.474H1096.72L1096.72 241.419Z" fill="white" fill-opacity="0.19"/>
</svg>
