<svg width="1920" height="807" viewBox="0 0 1920 807" fill="none" xmlns="http://www.w3.org/2000/svg">
<g filter="url(#filter0_f_2004_91)">
<path d="M983.006 -277.069C1032.49 -0.851228 843.798 242.751 561.556 267.032C279.314 291.314 10.3989 87.0785 -39.0825 -189.139C-88.564 -465.357 214.41 -230.386 496.652 -254.667C778.894 -278.948 933.525 -553.287 983.006 -277.069Z" fill="url(#paint0_radial_2004_91)" fill-opacity="0.5"/>
</g>
<g filter="url(#filter1_f_2004_91)">
<path d="M794.754 1218.14C768.38 887.797 1028.28 620 1375.25 620C1722.22 620 2024.88 887.797 2051.25 1218.14C2077.62 1548.49 1737.23 1241.04 1390.26 1241.04C1043.29 1241.04 821.128 1548.49 794.754 1218.14Z" fill="url(#paint1_radial_2004_91)" fill-opacity="0.5"/>
</g>
<defs>
<filter id="filter0_f_2004_91" x="-101.129" y="-456.129" width="1148.72" height="781.821" filterUnits="userSpaceOnUse" color-interpolation-filters="sRGB">
<feFlood flood-opacity="0" result="BackgroundImageFix"/>
<feBlend mode="normal" in="SourceGraphic" in2="BackgroundImageFix" result="shape"/>
<feGaussianBlur stdDeviation="28.35" result="effect1_foregroundBlur_2004_91"/>
</filter>
<filter id="filter1_f_2004_91" x="736.212" y="563.3" width="1373.18" height="864.541" filterUnits="userSpaceOnUse" color-interpolation-filters="sRGB">
<feFlood flood-opacity="0" result="BackgroundImageFix"/>
<feBlend mode="normal" in="SourceGraphic" in2="BackgroundImageFix" result="shape"/>
<feGaussianBlur stdDeviation="28.35" result="effect1_foregroundBlur_2004_91"/>
</filter>
<radialGradient id="paint0_radial_2004_91" cx="0" cy="0" r="1" gradientUnits="userSpaceOnUse" gradientTransform="translate(471.962 -233.104) rotate(79.8438) scale(508.098 510.789)">
<stop offset="0.205" stop-color="#FF3F02"/>
<stop offset="1" stop-color="#FF9900" stop-opacity="0"/>
</radialGradient>
<radialGradient id="paint1_radial_2004_91" cx="0" cy="0" r="1" gradientUnits="userSpaceOnUse" gradientTransform="translate(1423 1218.14) rotate(-94.5647) scale(600.044 626.255)">
<stop offset="0.205" stop-color="#FF3F02"/>
<stop offset="1" stop-color="#FF9900" stop-opacity="0"/>
</radialGradient>
</defs>
</svg>
