<svg width="44" height="45" viewBox="0 0 44 45" fill="none" xmlns="http://www.w3.org/2000/svg">
<path d="M2.17157 36.6716C0.609476 38.2337 0.609476 40.7663 2.17157 42.3284C3.73367 43.8905 6.26633 43.8905 7.82843 42.3284L2.17157 36.6716ZM44 4.5C44 2.29086 42.2091 0.5 40 0.500001L4 0.5C1.79086 0.5 8.6849e-08 2.29086 8.6849e-08 4.5C8.6849e-08 6.70914 1.79086 8.5 4 8.5L36 8.5L36 40.5C36 42.7091 37.7909 44.5 40 44.5C42.2091 44.5 44 42.7091 44 40.5L44 4.5ZM7.82843 42.3284L42.8284 7.32843L37.1716 1.67157L2.17157 36.6716L7.82843 42.3284Z" fill="white"/>
</svg>
