<svg width="30" height="31" viewBox="0 0 30 31" fill="none" xmlns="http://www.w3.org/2000/svg">
<path d="M6.25 14.3662H21.075L16.5375 8.91619C16.3253 8.66092 16.2232 8.33182 16.2537 8.00128C16.2842 7.67075 16.4447 7.36586 16.7 7.15369C16.9553 6.94152 17.2844 6.83944 17.6149 6.86991C17.9454 6.90039 18.2503 7.06092 18.4625 7.31619L24.7125 14.8162C24.7545 14.8758 24.7922 14.9385 24.825 15.0037C24.825 15.0662 24.825 15.1037 24.9125 15.1662C24.9692 15.3095 24.9988 15.4621 25 15.6162C24.9988 15.7703 24.9692 15.9229 24.9125 16.0662C24.9125 16.1287 24.9125 16.1662 24.825 16.2287C24.7922 16.2939 24.7545 16.3565 24.7125 16.4162L18.4625 23.9162C18.345 24.0573 18.1978 24.1708 18.0314 24.2485C17.8651 24.3263 17.6836 24.3665 17.5 24.3662C17.2079 24.3668 16.9249 24.265 16.7 24.0787C16.5734 23.9738 16.4688 23.8449 16.3921 23.6994C16.3154 23.554 16.2682 23.3949 16.2531 23.2312C16.238 23.0674 16.2553 22.9023 16.3041 22.7453C16.3529 22.5883 16.4322 22.4425 16.5375 22.3162L21.075 16.8662H6.25C5.91848 16.8662 5.60054 16.7345 5.36612 16.5001C5.13169 16.2657 5 15.9477 5 15.6162C5 15.2847 5.13169 14.9667 5.36612 14.7323C5.60054 14.4979 5.91848 14.3662 6.25 14.3662Z" fill="white"/>
</svg>
