<svg width="30" height="31" viewBox="0 0 30 31" fill="none" xmlns="http://www.w3.org/2000/svg">
<path d="M23.75 14.3662H8.925L13.4625 8.91619C13.6747 8.66092 13.7768 8.33182 13.7463 8.00128C13.7158 7.67075 13.5553 7.36586 13.3 7.15369C13.0447 6.94152 12.7156 6.83944 12.3851 6.86991C12.0546 6.90039 11.7497 7.06092 11.5375 7.31619L5.2875 14.8162C5.24545 14.8758 5.20785 14.9385 5.175 15.0037C5.175 15.0662 5.175 15.1037 5.0875 15.1662C5.03084 15.3095 5.00118 15.4621 5 15.6162C5.00118 15.7703 5.03084 15.9229 5.0875 16.0662C5.0875 16.1287 5.0875 16.1662 5.175 16.2287C5.20785 16.2939 5.24545 16.3565 5.2875 16.4162L11.5375 23.9162C11.655 24.0573 11.8022 24.1708 11.9686 24.2485C12.1349 24.3263 12.3164 24.3665 12.5 24.3662C12.7921 24.3668 13.0751 24.265 13.3 24.0787C13.4266 23.9738 13.5312 23.8449 13.6079 23.6994C13.6846 23.554 13.7318 23.3949 13.7469 23.2312C13.762 23.0674 13.7447 22.9023 13.6959 22.7453C13.6471 22.5883 13.5678 22.4425 13.4625 22.3162L8.925 16.8662H23.75C24.0815 16.8662 24.3995 16.7345 24.6339 16.5001C24.8683 16.2657 25 15.9477 25 15.6162C25 15.2847 24.8683 14.9667 24.6339 14.7323C24.3995 14.4979 24.0815 14.3662 23.75 14.3662Z" fill="#7C3AED"/>
</svg>
