<svg width="20" height="20" viewBox="0 0 20 20" fill="none" xmlns="http://www.w3.org/2000/svg">
<path d="M9.95837 10C11.0607 10 12.1178 9.56211 12.8973 8.78266C13.6767 8.00321 14.1146 6.94606 14.1146 5.84375C14.1146 4.74144 13.6767 3.68429 12.8973 2.90484C12.1178 2.12539 11.0607 1.6875 9.95837 1.6875C8.85607 1.6875 7.79891 2.12539 7.01946 2.90484C6.24001 3.68429 5.80212 4.74144 5.80212 5.84375C5.80212 6.94606 6.24001 8.00321 7.01946 8.78266C7.79891 9.56211 8.85607 10 9.95837 10ZM4.9115 11.1875C4.36035 11.1875 3.83177 11.4064 3.44204 11.7962C3.05232 12.1859 2.83337 12.7145 2.83337 13.2656V13.5625C2.83337 14.9833 3.73766 16.1851 5.02134 17.0021C6.31216 17.8238 8.05956 18.3125 9.95837 18.3125C11.8572 18.3125 13.604 17.8238 14.8954 17.0021C16.1791 16.1851 17.0834 14.9833 17.0834 13.5625V13.2656C17.0834 12.7145 16.8644 12.1859 16.4747 11.7962C16.085 11.4064 15.5564 11.1875 15.0052 11.1875H4.9115Z" fill="white"/>
</svg>
