<svg width="24" height="25" viewBox="0 0 24 25" fill="none" xmlns="http://www.w3.org/2000/svg">
<path d="M12 2.61621C6.486 2.61621 2 7.10221 2 12.6162C2 18.1302 6.486 22.6162 12 22.6162C17.514 22.6162 22 18.1302 22 12.6162C22 7.10221 17.514 2.61621 12 2.61621ZM10.001 17.0292L6.99545 14.0301C6.6047 13.6402 6.60391 13.0074 6.99369 12.6165C7.38371 12.2254 8.01701 12.2247 8.40793 12.6149L9.999 14.2032L14.586 9.61621C14.9765 9.22575 15.6095 9.22575 16 9.61621C16.3905 10.0067 16.3905 10.6397 16 11.0302L10.001 17.0292Z" fill="#2FAB73"/>
</svg>
