<svg width="25" height="25" viewBox="0 0 25 25" fill="none" xmlns="http://www.w3.org/2000/svg">
<g clip-path="url(#clip0_935_350)">
<g clip-path="url(#clip1_935_350)">
<path d="M9 16.6162C9.28333 16.6162 9.521 16.5202 9.713 16.3282C9.905 16.1362 10.0007 15.8989 10 15.6162C9.99933 15.3335 9.90333 15.0962 9.712 14.9042C9.52067 14.7122 9.28333 14.6162 9 14.6162C8.71667 14.6162 8.47933 14.7122 8.288 14.9042C8.09667 15.0962 8.00067 15.3335 8 15.6162C7.99933 15.8989 8.09533 16.1365 8.288 16.3292C8.48067 16.5219 8.718 16.6175 9 16.6162ZM9 12.6162C9.28333 12.6162 9.521 12.5202 9.713 12.3282C9.905 12.1362 10.0007 11.8989 10 11.6162C9.99933 11.3335 9.90333 11.0962 9.712 10.9042C9.52067 10.7122 9.28333 10.6162 9 10.6162C8.71667 10.6162 8.47933 10.7122 8.288 10.9042C8.09667 11.0962 8.00067 11.3335 8 11.6162C7.99933 11.8989 8.09533 12.1365 8.288 12.3292C8.48067 12.5219 8.718 12.6175 9 12.6162ZM9 8.61621C9.28333 8.61621 9.521 8.52021 9.713 8.32821C9.905 8.13621 10.0007 7.89888 10 7.61621C9.99933 7.33354 9.90333 7.09621 9.712 6.90421C9.52067 6.71221 9.28333 6.61621 9 6.61621C8.71667 6.61621 8.47933 6.71221 8.288 6.90421C8.09667 7.09621 8.00067 7.33354 8 7.61621C7.99933 7.89888 8.09533 8.13654 8.288 8.32921C8.48067 8.52188 8.718 8.61754 9 8.61621ZM13 16.6162H17C17.2833 16.6162 17.521 16.5202 17.713 16.3282C17.905 16.1362 18.0007 15.8989 18 15.6162C17.9993 15.3335 17.9033 15.0962 17.712 14.9042C17.5207 14.7122 17.2833 14.6162 17 14.6162H13C12.7167 14.6162 12.4793 14.7122 12.288 14.9042C12.0967 15.0962 12.0007 15.3335 12 15.6162C11.9993 15.8989 12.0953 16.1365 12.288 16.3292C12.4807 16.5219 12.718 16.6175 13 16.6162ZM13 12.6162H17C17.2833 12.6162 17.521 12.5202 17.713 12.3282C17.905 12.1362 18.0007 11.8989 18 11.6162C17.9993 11.3335 17.9033 11.0962 17.712 10.9042C17.5207 10.7122 17.2833 10.6162 17 10.6162H13C12.7167 10.6162 12.4793 10.7122 12.288 10.9042C12.0967 11.0962 12.0007 11.3335 12 11.6162C11.9993 11.8989 12.0953 12.1365 12.288 12.3292C12.4807 12.5219 12.718 12.6175 13 12.6162ZM13 8.61621H17C17.2833 8.61621 17.521 8.52021 17.713 8.32821C17.905 8.13621 18.0007 7.89888 18 7.61621C17.9993 7.33354 17.9033 7.09621 17.712 6.90421C17.5207 6.71221 17.2833 6.61621 17 6.61621H13C12.7167 6.61621 12.4793 6.71221 12.288 6.90421C12.0967 7.09621 12.0007 7.33354 12 7.61621C11.9993 7.89888 12.0953 8.13654 12.288 8.32921C12.4807 8.52188 12.718 8.61754 13 8.61621ZM6 20.6162C5.45 20.6162 4.97933 20.4205 4.588 20.0292C4.19667 19.6379 4.00067 19.1669 4 18.6162V4.61621C4 4.06621 4.196 3.59554 4.588 3.20421C4.98 2.81288 5.45067 2.61688 6 2.61621H20C20.55 2.61621 21.021 2.81221 21.413 3.20421C21.805 3.59621 22.0007 4.06688 22 4.61621V18.6162C22 19.1662 21.8043 19.6372 21.413 20.0292C21.0217 20.4212 20.5507 20.6169 20 20.6162H6ZM6 18.6162H20V4.61621H6V18.6162Z" fill="#7C3AED"/>
</g>
</g>
<defs>
<clipPath id="clip0_935_350">
<rect width="24" height="24" fill="white" transform="translate(0.5 0.116211)"/>
</clipPath>
<clipPath id="clip1_935_350">
<rect width="24" height="24" fill="white" transform="translate(1 -0.383789)"/>
</clipPath>
</defs>
</svg>
