<svg width="25" height="25" viewBox="0 0 25 25" fill="none" xmlns="http://www.w3.org/2000/svg">
<g clip-path="url(#clip0_935_339)">
<path d="M9.4 20.6162C7.88333 20.6162 6.604 20.0955 5.562 19.0542C4.52 18.0129 3.99933 16.7335 4 15.2162C4 14.5829 4.10833 13.9662 4.325 13.3662C4.54167 12.7662 4.85 12.2245 5.25 11.7412L8.8 7.46621L7.1 4.06621C6.93333 3.73288 6.946 3.40788 7.138 3.09121C7.33 2.77454 7.61733 2.61621 8 2.61621H18C18.3833 2.61621 18.671 2.77454 18.863 3.09121C19.055 3.40788 19.0673 3.73288 18.9 4.06621L17.2 7.46621L20.75 11.7412C21.15 12.2245 21.4583 12.7662 21.675 13.3662C21.8917 13.9662 22 14.5829 22 15.2162C22 16.7329 21.475 18.0122 20.425 19.0542C19.375 20.0962 18.1 20.6169 16.6 20.6162H9.4ZM13 15.6162C12.45 15.6162 11.9793 15.4205 11.588 15.0292C11.1967 14.6379 11.0007 14.1669 11 13.6162C10.9993 13.0655 11.1953 12.5949 11.588 12.2042C11.9807 11.8135 12.4513 11.6175 13 11.6162C13.5487 11.6149 14.0197 11.8109 14.413 12.2042C14.8063 12.5975 15.002 13.0682 15 13.6162C14.998 14.1642 14.8023 14.6352 14.413 15.0292C14.0237 15.4232 13.5527 15.6189 13 15.6162ZM10.625 6.61621H15.375L16.375 4.61621H9.625L10.625 6.61621ZM9.4 18.6162H16.6C17.55 18.6162 18.3543 18.2872 19.013 17.6292C19.6717 16.9712 20.0007 16.1669 20 15.2162C20 14.8162 19.929 14.4289 19.787 14.0542C19.645 13.6795 19.4493 13.3419 19.2 13.0412L15.525 8.61621H10.5L6.8 13.0162C6.55 13.3162 6.35433 13.6579 6.213 14.0412C6.07167 14.4245 6.00067 14.8162 6 15.2162C6 16.1662 6.32933 16.9705 6.988 17.6292C7.64667 18.2879 8.45067 18.6169 9.4 18.6162Z" fill="#7C3AED"/>
</g>
<defs>
<clipPath id="clip0_935_339">
<rect width="24" height="24" fill="white" transform="translate(0.5 0.116211)"/>
</clipPath>
</defs>
</svg>
