<svg width="25" height="25" viewBox="0 0 25 25" fill="none" xmlns="http://www.w3.org/2000/svg">
<g clip-path="url(#clip0_935_328)">
<path d="M6.925 20.6162C6.54167 20.6162 6.171 20.4829 5.813 20.2162C5.455 19.9495 5.21733 19.6245 5.1 19.2412C4.68333 17.8412 4.34167 16.6289 4.075 15.6042C3.80833 14.5795 3.59567 13.6795 3.437 12.9042C3.27833 12.1289 3.166 11.4412 3.1 10.8412C3.034 10.2412 3.00067 9.66621 3 9.11621C3 7.58288 3.53333 6.28288 4.6 5.21621C5.66667 4.14954 6.96667 3.61621 8.5 3.61621H13.5C13.95 3.01621 14.521 2.53288 15.213 2.16621C15.905 1.79954 16.6673 1.61621 17.5 1.61621C17.9167 1.61621 18.271 1.76221 18.563 2.05421C18.855 2.34621 19.0007 2.70021 19 3.11621C19 3.21621 18.9873 3.31621 18.962 3.41621C18.9367 3.51621 18.9077 3.60788 18.875 3.69121C18.8083 3.87454 18.746 4.05788 18.688 4.24121C18.63 4.42454 18.584 4.62454 18.55 4.84121L20.825 7.11621H22C22.2833 7.11621 22.521 7.21221 22.713 7.40421C22.905 7.59621 23.0007 7.83354 23 8.11621V13.3662C23 13.5829 22.9377 13.7745 22.813 13.9412C22.6883 14.1079 22.5173 14.2329 22.3 14.3162L20.175 15.0162L18.925 19.1912C18.7917 19.6245 18.55 19.9705 18.2 20.2292C17.85 20.4879 17.45 20.6169 17 20.6162H15C14.45 20.6162 13.9793 20.4205 13.588 20.0292C13.1967 19.6379 13.0007 19.1669 13 18.6162H11C11 19.1662 10.8043 19.6372 10.413 20.0292C10.0217 20.4212 9.55067 20.6169 9 20.6162H6.925ZM7 18.6162H9V16.6162H15V18.6162H17L18.55 13.4662L21 12.6412V9.11621H20L16.5 5.61621C16.5 5.28288 16.521 4.95788 16.563 4.64121C16.605 4.32454 16.6673 4.01621 16.75 3.71621C16.2667 3.84954 15.8417 4.07888 15.475 4.40421C15.1083 4.72954 14.8417 5.13354 14.675 5.61621H8.5C7.53333 5.61621 6.70833 5.95788 6.025 6.64121C5.34167 7.32454 5 8.14954 5 9.11621C5 9.79954 5.175 10.9705 5.525 12.6292C5.875 14.2879 6.36667 16.2835 7 18.6162ZM17 10.6162C17.2833 10.6162 17.521 10.5202 17.713 10.3282C17.905 10.1362 18.0007 9.89888 18 9.61621C17.9993 9.33354 17.9033 9.09621 17.712 8.90421C17.5207 8.71221 17.2833 8.61621 17 8.61621C16.7167 8.61621 16.4793 8.71221 16.288 8.90421C16.0967 9.09621 16.0007 9.33354 16 9.61621C15.9993 9.89888 16.0953 10.1365 16.288 10.3292C16.4807 10.5219 16.718 10.6175 17 10.6162ZM13 8.61621C13.2833 8.61621 13.521 8.52021 13.713 8.32821C13.905 8.13621 14.0007 7.89888 14 7.61621C13.9993 7.33354 13.9033 7.09621 13.712 6.90421C13.5207 6.71221 13.2833 6.61621 13 6.61621H10C9.71667 6.61621 9.47933 6.71221 9.288 6.90421C9.09667 7.09621 9.00067 7.33354 9 7.61621C8.99933 7.89888 9.09533 8.13654 9.288 8.32921C9.48067 8.52188 9.718 8.61754 10 8.61621H13Z" fill="#7C3AED"/>
</g>
<defs>
<clipPath id="clip0_935_328">
<rect width="24" height="24" fill="white" transform="translate(0.5 0.116211)"/>
</clipPath>
</defs>
</svg>
